<svg xmlns="http://www.w3.org/2000/svg" width="1024" height="1024" viewBox="0 0 1024 1024">
<g>
<path d="M 549.50 565.61 C541.48,567.37 508.39,567.22 496.50,565.37 C475.48,562.11 443.40,552.68 435.37,547.42 C428.80,543.11 402.33,517.72 403.87,517.21 C404.42,517.03 406.17,517.56 407.77,518.38 C409.37,519.21 413.69,520.41 417.37,521.05 C426.84,522.70 434.36,521.08 446.66,514.73 C475.23,499.98 476.66,499.55 497.10,499.52 C513.38,499.50 516.20,500.28 517.95,505.30 C518.80,507.72 518.66,508.90 517.23,511.34 C513.79,517.24 504.45,520.19 480.69,522.90 C475.30,523.51 469.45,524.74 467.69,525.62 C463.32,527.83 460.00,531.02 460.00,533.00 C460.00,538.20 470.65,542.68 494.84,547.64 C505.16,549.75 543.35,550.78 545.50,549.00 C549.37,545.78 547.33,545.24 529.75,544.76 C510.87,544.26 504.50,542.94 504.50,539.55 C504.50,536.46 509.99,534.03 519.34,532.96 C530.49,531.70 538.70,532.90 554.81,538.15 C561.79,540.43 571.07,542.81 575.42,543.44 L 583.35 544.58 L 572.97 552.92 C561.76,561.94 558.70,563.59 549.50,565.61 ZM 389.75 422.23 C386.30,425.68 381.58,431.36 379.24,434.86 L 375.00 441.23 L 375.00 433.30 C375.00,411.94 388.95,391.04 410.20,380.55 C422.52,374.46 431.32,372.66 445.50,373.31 C461.68,374.04 475.08,378.86 487.65,388.46 C492.82,392.40 510.38,408.98 509.86,409.41 C507.82,411.11 498.59,417.00 497.96,417.00 C497.52,417.00 495.88,415.94 494.33,414.64 C488.57,409.82 479.49,404.67 471.61,401.76 C464.90,399.28 461.50,398.67 451.94,398.25 C427.56,397.18 406.74,405.20 389.75,422.23 ZM 436.82 510.47 C429.96,512.81 413.08,513.50 407.50,511.66 C401.26,509.60 397.00,507.09 397.00,505.47 C397.00,503.43 399.98,503.63 405.64,506.06 C416.20,510.59 429.89,509.29 440.86,502.71 C443.80,500.95 449.79,496.22 454.16,492.21 C472.47,475.41 478.73,472.53 500.00,471.14 C515.04,470.16 525.88,470.83 528.36,472.88 C531.11,475.17 530.30,478.70 526.06,482.94 C520.43,488.57 514.77,490.00 498.15,490.00 C490.73,490.00 481.70,490.50 478.08,491.11 C470.89,492.32 459.29,497.57 448.82,504.33 C445.15,506.71 439.75,509.47 436.82,510.47 ZM 298.75 649.20 C295.15,651.09 292.55,651.49 281.75,651.82 L 269.00 652.20 L 269.00 613.00 L 281.75 613.02 C291.99,613.04 295.30,613.41 298.58,614.90 C312.27,621.12 312.38,642.02 298.75,649.20 ZM 733.00 642.00 L 733.00 652.00 L 728.17 652.00 C725.51,652.00 723.03,651.70 722.67,651.33 C722.30,650.97 722.00,642.19 722.00,631.83 L 722.00 613.00 L 734.03 613.00 C742.24,613.00 747.16,613.46 749.51,614.44 C758.16,618.05 759.67,631.56 752.17,638.35 L 750.14 640.19 L 753.57 644.96 C755.46,647.59 757.00,650.25 757.00,650.87 C757.00,651.57 754.99,652.00 751.75,652.00 C746.57,652.00 746.45,651.93 743.09,647.00 C740.15,642.68 739.23,642.00 736.34,642.00 ZM 468.80 646.75 L 468.50 651.50 L 458.00 652.10 L 458.00 613.00 L 470.04 613.00 C480.02,613.00 482.74,613.34 485.91,614.96 C493.58,618.87 495.10,630.45 488.81,636.89 L 485.69 640.07 L 489.28 645.23 C491.26,648.07 492.65,650.75 492.38,651.19 C492.11,651.64 489.71,652.00 487.07,652.00 C482.41,652.00 482.14,651.84 478.87,647.03 C476.02,642.82 475.01,642.05 472.30,642.03 C469.20,642.00 469.10,642.13 468.80,646.75 ZM 606.81 646.51 L 606.50 651.50 L 596.00 652.10 L 596.00 613.00 L 607.00 613.00 L 607.00 628.46 L 621.50 612.84 L 627.25 613.17 L 633.00 613.50 L 626.00 621.16 C622.15,625.38 619.00,629.35 619.00,629.99 C619.00,630.63 622.35,635.49 626.44,640.78 C630.53,646.07 633.65,650.76 633.38,651.20 C633.10,651.64 630.49,652.00 627.57,652.00 L 622.25 652.00 L 616.93 645.00 C614.00,641.15 611.32,638.00 610.96,638.00 C609.09,638.00 607.09,642.09 606.81,646.51 ZM 448.00 643.00 L 448.00 652.00 L 433.17 652.00 C425.01,652.00 418.03,651.70 417.67,651.33 C417.30,650.97 417.00,642.19 417.00,631.83 L 417.00 613.00 L 448.00 613.00 L 448.00 621.00 L 427.87 621.00 L 428.50 627.50 L 437.02 627.79 L 445.55 628.07 L 445.17 632.04 L 444.79 636.00 L 428.00 636.00 L 428.00 643.00 ZM 350.11 643.00 L 349.50 651.50 L 334.44 651.78 C326.16,651.93 319.07,651.74 318.69,651.36 C318.31,650.98 318.00,642.19 318.00,631.83 L 318.00 613.00 L 349.00 613.00 L 349.00 621.00 L 328.87 621.00 L 329.50 627.50 L 337.75 627.79 L 346.00 628.08 L 346.00 636.00 L 329.00 636.00 L 329.00 643.00 ZM 672.00 643.00 L 672.00 652.00 L 657.17 652.00 C649.01,652.00 642.03,651.70 641.67,651.33 C641.30,650.97 641.00,642.19 641.00,631.83 L 641.00 613.00 L 672.00 613.00 L 672.00 621.00 L 651.87 621.00 L 652.50 627.50 L 660.75 627.79 L 669.00 628.08 L 669.00 636.00 L 652.00 636.00 L 652.00 643.00 ZM 713.11 643.00 L 712.50 651.50 L 697.25 651.78 L 682.00 652.05 L 682.00 613.00 L 712.00 613.00 L 712.00 621.00 L 693.00 621.00 L 693.00 628.00 L 710.00 628.00 L 710.00 636.00 L 693.00 636.00 L 693.00 643.00 ZM 579.87 649.87 C567.62,654.96 553.01,650.13 549.06,639.68 C547.70,636.06 547.70,627.93 549.07,624.32 C551.85,616.98 559.46,612.62 569.50,612.62 C576.41,612.62 583.71,615.11 585.56,618.09 C585.94,618.71 584.85,620.61 583.13,622.33 C580.05,625.41 579.99,625.43 577.11,623.72 C575.39,622.71 572.13,622.00 569.18,622.00 C564.82,622.00 563.85,622.40 561.59,625.08 C557.90,629.46 558.01,635.17 561.87,639.03 C565.27,642.42 569.28,643.64 572.89,642.37 C575.19,641.57 575.54,640.84 575.80,636.23 L 576.10 631.00 L 585.00 631.00 L 585.00 647.73 ZM 529.72 649.89 C521.22,654.01 509.77,651.69 504.90,644.87 C502.68,641.76 502.48,640.42 502.18,627.25 L 501.85 613.00 L 513.00 613.00 L 513.00 625.55 C513.00,637.53 513.11,638.20 515.45,640.55 C519.58,644.67 524.97,643.41 526.89,637.87 C527.50,636.13 528.00,629.82 528.00,623.85 L 528.00 613.00 L 538.00 613.00 L 538.00 626.54 C538.00,642.88 536.71,646.51 529.72,649.89 ZM 397.78 636.80 L 397.50 651.50 L 387.00 652.10 L 387.00 622.00 L 375.00 622.00 L 375.00 613.00 L 410.11 613.00 L 409.50 621.50 L 403.78 621.80 L 398.05 622.10 ZM 280.75 642.43 C281.16,642.85 283.89,643.00 286.81,642.76 C294.23,642.15 297.50,638.88 297.50,632.06 C297.50,628.25 296.96,626.59 295.08,624.58 C292.97,622.33 291.83,622.00 286.33,622.00 L 280.00 622.00 L 280.00 631.83 C280.00,637.24 280.34,642.01 280.75,642.43 ZM 469.00 622.00 L 469.00 633.00 L 472.92 633.00 C475.07,633.00 477.58,632.71 478.49,632.36 C480.87,631.45 482.14,627.49 481.00,624.50 C480.14,622.25 479.50,622.00 474.52,622.00 ZM 733.40 631.61 C734.16,633.58 742.41,633.45 744.43,631.43 C746.39,629.47 746.47,624.64 744.58,623.06 C743.78,622.40 741.03,622.02 738.33,622.19 C733.51,622.50 733.50,622.51 733.18,626.36 C733.01,628.48 733.11,630.84 733.40,631.61 Z" fill="rgb(10,92,164)"/>
<path d="M 590.00 456.98 C584.22,459.09 578.38,461.24 577.00,461.76 C574.37,462.76 572.00,462.40 572.00,461.00 C572.00,460.24 588.61,448.86 600.50,441.49 C631.59,422.20 643.47,416.58 648.00,419.00 C650.80,420.50 650.59,425.43 647.44,431.74 C645.35,435.94 643.94,437.35 639.74,439.44 C636.92,440.85 633.91,442.00 633.05,442.01 C631.00,442.01 615.19,447.17 607.00,450.50 C603.42,451.95 595.78,454.87 590.00,456.98 ZM 413.50 467.01 C401.70,470.68 391.87,471.68 387.48,469.67 C384.45,468.28 378.00,461.72 378.00,460.02 C378.00,459.52 381.49,459.12 385.75,459.13 C390.68,459.15 398.95,458.02 408.50,456.03 C416.75,454.30 427.33,452.64 432.00,452.32 C440.45,451.75 442.58,451.99 465.50,455.98 C472.10,457.13 478.99,458.30 480.81,458.59 C483.24,458.97 484.04,459.57 483.80,460.81 C483.75,461.03 483.72,461.23 483.64,461.40 C483.06,462.61 479.82,462.55 449.85,461.96 L 448.00 461.93 C437.60,461.72 430.02,462.03 427.50,462.75 C425.30,463.38 419.00,465.30 413.50,467.01 ZM 561.60 505.39 C556.57,508.07 554.83,508.50 553.67,507.33 C552.36,506.03 553.08,505.12 559.38,500.17 C570.90,491.11 577.45,488.75 602.50,484.57 C618.09,481.98 623.43,480.59 630.97,477.16 C636.98,474.42 638.72,475.69 636.06,480.85 C633.28,486.22 627.30,491.53 620.56,494.61 C615.01,497.14 613.36,497.37 595.56,498.03 C575.29,498.79 573.09,499.27 561.60,505.39 ZM 585.00 440.05 C571.91,443.73 554.36,445.42 555.20,442.91 C555.45,442.16 557.42,441.17 559.58,440.73 C573.60,437.84 587.22,432.12 592.67,426.83 C594.43,425.13 596.77,421.63 597.88,419.06 C601.83,409.87 607.88,406.00 618.29,406.00 C623.65,406.00 625.00,406.37 626.83,408.31 C631.71,413.51 627.90,419.13 618.19,421.04 C610.57,422.54 606.74,424.86 603.54,429.94 C600.14,435.33 598.39,436.28 585.00,440.05 ZM 576.10 420.09 C573.68,421.34 569.34,422.56 566.46,422.79 C562.11,423.16 560.87,422.87 559.11,421.11 C554.67,416.67 557.36,409.57 566.86,400.72 C573.04,394.95 579.51,392.00 585.96,392.00 C591.52,392.00 593.00,393.28 593.18,398.28 C593.43,404.88 585.17,415.42 576.10,420.09 ZM 606.07 513.39 C596.50,516.23 575.51,514.95 571.91,511.32 C570.08,509.47 571.61,507.06 575.74,505.30 C578.60,504.07 583.21,503.65 595.00,503.53 C606.71,503.42 611.93,502.95 616.32,501.60 C619.53,500.62 622.40,500.07 622.72,500.39 C623.83,501.49 618.45,508.16 615.00,509.96 C613.08,510.96 609.06,512.50 606.07,513.39 ZM 406.49 481.46 C397.51,484.07 384.91,482.90 382.65,479.25 C381.93,478.08 406.08,474.57 408.83,475.45 C409.91,475.79 411.01,476.93 411.29,477.99 C411.71,479.59 410.90,480.18 406.49,481.46 Z" fill="rgb(57,188,232)"/>
<path d="M 392.61 476.86 C399.36,475.81 407.32,474.97 408.83,475.45 C409.91,475.79 411.01,476.93 411.29,477.99 C411.53,478.91 411.36,479.50 410.34,480.07 ZM 555.65 443.64 C545.83,443.53 537.21,442.59 536.10,441.38 C535.77,441.03 538.20,441.03 541.50,441.38 C549.78,442.27 560.43,440.91 570.47,437.90 C566.96,439.00 563.28,439.96 559.58,440.73 C557.42,441.17 555.45,442.16 555.20,442.91 C555.10,443.21 555.26,443.45 555.65,443.64 ZM 476.78 457.92 C478.53,458.19 480.00,458.41 481.00,458.53 C489.12,459.55 490.28,460.58 484.96,462.03 C481.70,462.91 476.87,463.01 467.00,462.37 C466.35,462.33 465.71,462.29 465.06,462.25 C481.03,462.52 483.18,462.37 483.64,461.40 C483.72,461.23 483.75,461.03 483.80,460.81 C484.04,459.57 483.24,458.97 480.81,458.59 C480.11,458.48 478.67,458.24 476.78,457.92 ZM 575.52 462.19 C567.53,465.02 566.00,465.31 566.00,464.56 C566.00,464.28 575.98,457.50 585.68,451.09 C578.17,456.13 572.00,460.53 572.00,461.00 C572.00,462.13 573.54,462.59 575.52,462.19 ZM 565.75 509.25 C565.25,510.78 561.41,511.47 560.61,510.17 C559.74,508.77 562.72,506.68 564.57,507.39 C565.45,507.73 565.98,508.56 565.75,509.25 ZM 636.62 479.67 C638.19,476.03 636.91,474.91 632.86,476.38 C634.60,475.48 636.11,474.53 637.43,473.51 C640.43,471.19 640.37,472.33 637.15,478.65 C636.98,478.99 636.80,479.33 636.62,479.67 ZM 422.75 473.25 C422.27,474.68 419.73,475.40 418.73,474.40 C417.64,473.31 418.96,472.00 421.14,472.00 C422.32,472.00 422.99,472.52 422.75,473.25 ZM 585.00 440.05 C592.74,437.87 596.59,436.63 599.12,434.93 C596.60,436.63 592.75,437.88 585.00,440.08 C578.42,441.95 574.64,442.81 569.62,443.23 C574.57,442.52 580.10,441.43 585.00,440.05 ZM 626.28 479.12 C620.65,481.24 614.73,482.54 602.50,484.57 C612.74,482.87 620.42,481.13 626.28,479.12 ZM 413.50 467.01 C419.00,465.30 425.30,463.38 427.50,462.75 C428.48,462.47 430.22,462.25 432.59,462.10 C430.39,462.29 428.65,462.54 427.50,462.84 C425.30,463.42 419.00,465.30 413.50,467.01 ZM 587.54 430.61 C590.49,428.79 592.78,426.84 594.58,424.60 C593.93,425.48 593.27,426.26 592.67,426.83 C591.38,428.08 589.64,429.35 587.54,430.61 ZM 406.49 481.46 C406.58,481.43 406.66,481.41 406.74,481.39 C406.63,481.42 406.51,481.46 406.39,481.49 C402.91,482.55 398.70,482.97 394.78,482.86 C398.66,482.95 402.87,482.51 406.49,481.46 ZM 629.15 489.15 C626.67,491.32 623.82,493.12 620.56,494.61 C623.66,493.19 626.61,491.30 629.15,489.15 Z" fill="rgb(118,171,203)"/>
<path d="M 526.96 426.01 C518.55,428.76 511.51,431.00 511.33,431.00 C510.60,431.00 511.15,425.15 512.42,419.50 C518.48,392.52 518.74,391.72 520.71,394.21 C521.28,394.92 522.28,397.18 522.94,399.24 C523.60,401.29 524.57,403.23 525.09,403.56 C525.61,403.88 531.67,399.91 538.56,394.75 C552.16,384.55 565.90,377.12 576.06,374.47 C585.76,371.94 603.22,372.82 612.23,376.30 C620.88,379.64 629.37,385.43 635.58,392.24 C642.55,399.89 643.60,402.14 642.01,405.99 C641.30,407.69 640.34,408.95 639.87,408.79 C639.40,408.63 637.55,406.29 635.76,403.59 C630.34,395.43 625.72,393.97 613.75,396.62 C611.20,397.19 611.00,397.00 611.00,394.04 C611.00,389.83 606.69,385.53 600.91,383.97 C594.67,382.29 580.83,383.23 573.24,385.86 C569.80,387.05 563.80,389.93 559.90,392.26 C552.57,396.65 534.00,411.52 534.00,413.00 C534.00,413.46 536.24,414.58 538.99,415.50 C548.16,418.54 547.13,419.44 526.96,426.01 ZM 541.19 503.66 C537.18,505.50 533.69,507.00 533.44,507.00 C531.35,507.00 535.78,500.43 542.11,494.14 C549.32,486.98 559.46,480.06 577.39,470.06 C590.95,462.51 593.18,461.60 602.39,459.86 C631.13,454.45 636.09,452.89 644.26,446.64 C646.88,444.64 649.24,443.00 649.51,443.00 C650.57,443.00 649.91,448.90 648.33,453.54 C646.30,459.51 639.32,466.79 632.15,470.42 C625.02,474.04 611.87,477.55 596.00,480.07 C579.40,482.71 569.91,486.23 557.75,494.23 C552.66,497.58 545.21,501.82 541.19,503.66 ZM 532.79 488.43 C531.31,489.84 529.85,491.00 529.57,491.00 C528.29,491.00 531.38,485.44 535.98,479.43 C541.44,472.31 542.07,469.53 539.01,466.24 C535.89,462.90 530.82,461.96 512.25,461.31 C493.18,460.63 491.42,460.06 494.44,455.46 C498.89,448.66 508.43,446.50 534.00,446.50 C553.55,446.50 558.37,447.30 562.75,451.30 C564.29,452.70 565.00,454.49 565.00,456.96 C565.00,460.00 564.18,461.36 559.75,465.63 C556.86,468.41 550.22,474.10 545.00,478.28 C539.78,482.45 534.28,487.02 532.79,488.43 ZM 591.24 536.02 C583.78,540.52 574.77,539.35 552.50,531.01 C543.88,527.78 539.66,526.78 533.00,526.37 C521.61,525.67 521.19,525.49 523.89,522.62 C527.59,518.68 535.95,515.22 543.52,514.50 C550.65,513.81 558.32,515.07 577.00,519.99 C586.07,522.38 593.22,522.52 601.20,520.45 C604.49,519.59 607.60,519.03 608.11,519.20 C609.33,519.61 595.37,533.53 591.24,536.02 ZM 460.70 445.25 C457.87,447.31 455.21,449.00 454.79,449.00 C453.18,449.00 457.76,443.07 463.25,438.05 C469.50,432.34 470.28,429.90 467.12,425.88 C464.75,422.87 457.92,420.63 441.61,417.52 C434.53,416.17 428.51,414.84 428.24,414.58 C427.03,413.36 429.30,408.90 431.76,407.64 C436.42,405.25 442.30,404.82 454.63,405.96 C480.11,408.32 493.00,413.40 493.00,421.10 C493.00,425.32 489.31,428.56 476.39,435.69 C470.59,438.89 463.54,443.19 460.70,445.25 ZM 419.00 495.82 C409.45,498.83 402.14,497.97 393.39,492.80 C389.10,490.27 390.00,489.51 398.26,488.70 C402.37,488.30 407.11,486.65 414.76,482.94 C442.36,469.58 451.48,466.99 470.79,467.02 C481.85,467.03 487.57,467.89 485.97,469.31 C485.71,469.54 481.67,470.97 477.00,472.49 C472.33,474.01 466.70,476.05 464.50,477.03 C451.86,482.61 422.71,494.65 419.00,495.82 ZM 518.74 586.40 C513.92,588.38 509.42,589.97 508.74,589.94 C508.06,589.91 504.35,588.80 500.50,587.48 C485.05,582.19 453.88,563.99 458.90,563.20 C460.22,562.99 463.82,563.52 466.90,564.37 C473.62,566.23 488.68,569.40 499.00,571.12 C503.41,571.85 514.54,572.32 525.98,572.26 C545.32,572.15 545.44,572.16 542.98,574.05 C539.26,576.91 528.58,582.35 518.74,586.40 ZM 398.16 450.42 C393.03,452.43 387.63,454.30 386.16,454.57 C382.99,455.15 379.28,453.35 377.24,450.25 C375.86,448.15 375.90,448.00 377.94,448.00 C379.15,448.00 385.17,445.77 391.32,443.05 C404.91,437.03 410.50,435.52 425.17,433.91 C437.61,432.55 451.54,433.64 456.74,436.38 L 459.50 437.84 L 456.50 439.00 C454.85,439.63 446.08,440.77 437.00,441.53 C419.63,442.99 413.53,444.38 398.16,450.42 ZM 417.04 427.89 C412.31,430.54 401.22,431.73 397.25,430.03 C391.58,427.60 396.61,422.08 406.89,419.45 C422.00,415.58 428.85,421.29 417.04,427.89 ZM 495.87 536.57 C492.54,538.29 480.65,538.35 476.90,536.67 C473.64,535.21 471.00,533.04 471.00,531.83 C471.00,529.69 479.58,527.04 486.60,527.02 C500.59,526.98 505.22,531.73 495.87,536.57 ZM 392.61 476.86 C398.50,475.88 405.42,475.00 408.63,475.00 C412.44,475.00 414.70,477.18 412.65,478.87 C412.29,479.18 411.43,479.61 410.34,480.07 C410.36,480.06 410.39,480.05 410.41,480.03 C411.37,479.47 411.52,478.89 411.29,477.99 C411.01,476.93 409.91,475.79 408.83,475.45 C407.32,474.97 399.36,475.81 392.61,476.86 Z" fill="rgb(118,208,211)"/>
<path d="M 469.46 565.04 C468.51,564.81 467.65,564.58 466.90,564.37 C463.82,563.52 460.22,562.99 458.90,563.20 C457.10,563.48 459.94,566.00 465.04,569.35 C463.77,568.58 462.45,567.78 461.07,566.94 C459.65,566.08 456.74,564.30 454.59,562.99 C449.02,559.61 451.75,559.37 461.02,562.45 C463.85,563.38 466.65,564.25 469.46,565.04 ZM 532.79 488.43 C533.97,487.32 537.62,484.25 541.68,480.96 C537.33,484.65 533.25,488.61 531.84,490.58 C530.09,493.01 528.45,495.00 528.20,495.00 C527.95,495.00 527.99,493.45 528.30,491.56 C528.65,489.40 530.95,485.59 534.47,481.32 C535.08,480.57 535.69,479.81 536.26,479.06 C536.17,479.18 536.07,479.31 535.98,479.43 C531.38,485.44 528.29,491.00 529.57,491.00 C529.85,491.00 531.31,489.84 532.79,488.43 ZM 618.54 395.73 C616.44,396.16 614.37,396.84 613.41,397.47 C609.78,399.84 609.26,399.37 609.76,394.16 C609.94,392.24 610.00,391.03 609.80,390.11 C610.57,391.37 611.00,392.71 611.00,394.04 C611.00,397.00 611.20,397.19 613.75,396.62 C615.49,396.24 617.08,395.94 618.54,395.73 ZM 480.21 467.32 C484.28,467.48 487.49,467.71 488.50,467.96 L 491.50 468.68 L 488.50 469.36 C483.57,470.50 471.99,474.13 466.48,476.22 C469.20,475.15 473.39,473.67 477.00,472.49 C481.67,470.97 485.71,469.54 485.97,469.31 C487.02,468.38 484.91,467.69 480.21,467.32 ZM 516.21 402.90 C516.93,399.59 517.49,396.73 517.68,395.35 C518.00,392.96 518.64,391.00 519.08,391.00 C519.49,391.00 520.65,393.25 521.77,396.16 C521.37,395.28 520.99,394.56 520.71,394.21 C519.27,392.40 518.74,392.33 516.21,402.90 ZM 530.35 424.90 C547.22,419.32 547.61,418.36 538.99,415.50 C536.24,414.58 534.00,413.46 534.00,413.00 C534.01,413.46 536.93,414.81 540.50,416.00 C544.08,417.19 547.00,418.48 547.00,418.86 C547.00,419.24 539.51,421.96 530.35,424.90 ZM 537.56 572.23 C534.83,572.21 531.07,572.23 525.98,572.26 C514.54,572.32 503.41,571.85 499.00,571.12 C497.31,570.83 495.50,570.52 493.62,570.17 C503.61,571.59 514.02,572.24 525.46,572.22 C530.82,572.20 534.74,572.20 537.56,572.23 ZM 477.99 577.01 C483.86,580.21 490.16,583.33 495.53,585.57 C493.04,584.60 490.63,583.60 488.72,582.73 C486.20,581.58 482.76,579.75 477.99,577.01 ZM 493.28 457.92 C493.05,459.86 495.85,460.54 504.92,461.00 C495.99,460.93 492.88,460.27 493.28,457.92 ZM 603.45 384.87 C600.58,383.74 597.03,383.17 592.53,383.13 C595.83,383.14 598.80,383.40 600.91,383.97 C601.79,384.21 602.65,384.52 603.45,384.87 ZM 579.10 384.36 C576.00,385.01 573.00,385.93 569.95,387.16 C571.18,386.64 572.30,386.19 573.24,385.86 C574.93,385.28 576.94,384.77 579.10,384.36 ZM 451.16 468.66 C441.56,470.65 431.61,474.79 414.76,482.94 C431.73,474.73 441.57,470.61 451.16,468.66 ZM 522.95 399.26 C523.86,401.49 524.72,403.23 525.12,403.57 C525.11,403.56 525.10,403.56 525.09,403.56 C524.57,403.24 523.61,401.30 522.95,399.26 ZM 540.82 470.52 C540.75,469.20 540.25,467.85 539.41,466.70 C540.44,467.92 540.93,469.11 540.82,470.52 ZM 628.15 396.39 C631.02,397.58 633.31,399.90 635.76,403.59 C633.36,399.98 630.93,397.64 628.15,396.39 ZM 527.56 462.22 C529.84,462.47 531.67,462.77 533.17,463.14 C531.64,462.80 529.74,462.49 527.56,462.22 ZM 503.41 588.45 C506.07,589.30 508.23,589.92 508.74,589.94 C508.02,589.91 506.00,589.32 503.41,588.45 ZM 513.89 430.22 C512.91,430.54 512.28,430.75 512.09,430.82 C511.99,430.86 511.89,430.88 511.80,430.87 C512.23,430.74 512.95,430.52 513.89,430.22 ZM 512.86 417.52 C513.15,416.20 513.47,414.77 513.83,413.24 C513.52,414.58 513.20,416.01 512.86,417.52 Z" fill="rgb(162,216,226)"/>
</g>
</svg>