<svg xmlns="http://www.w3.org/2000/svg" width="800" height="800" viewBox="0 0 800 800" version="1.1">
	<path fill-opacity="0.039" d="M 454.500 290.994 C 443.951 292.647, 433.367 297.948, 419.516 308.517 C 414.842 312.082, 410.841 315, 410.625 315 C 410.409 315, 409.197 312.449, 407.931 309.331 C 406.058 304.715, 405.488 304.018, 404.866 305.581 C 403.394 309.273, 397.823 336.156, 398.407 336.741 C 399.174 337.507, 428 328.151, 428 327.136 C 428 326.712, 425.525 325.585, 422.500 324.632 C 419.475 323.678, 417 322.770, 417 322.614 C 417 322.458, 420.938 319.152, 425.750 315.268 C 434.409 308.280, 442.755 303.445, 450.500 300.930 C 456.630 298.940, 466.774 299.237, 471.500 301.546 C 475.349 303.426, 475.498 303.679, 475.437 308.250 C 475.403 310.863, 475.420 313, 475.476 313 C 475.531 313, 477.342 312.100, 479.500 311 C 481.658 309.900, 484.565 309.002, 485.961 309.004 C 490.071 309.010, 494.745 312.576, 497.375 317.712 L 499.826 322.500 500.840 319.877 C 503.156 313.886, 502.899 313.085, 496.415 306.082 C 485.555 294.352, 469.639 288.622, 454.500 290.994 M 330.112 292.522 C 313.137 297.272, 298.952 310.704, 294.009 326.705 C 292.059 333.019, 291.234 345.008, 292.750 344.992 C 293.163 344.988, 294.465 343.301, 295.644 341.242 C 299.017 335.354, 305.664 328.341, 312.488 323.471 C 329.386 311.413, 349.874 308.062, 368.049 314.382 C 375.295 316.902, 388.441 325.478, 387.468 327.051 C 387.155 327.559, 389.711 326.105, 393.149 323.821 L 399.401 319.669 391.450 312.318 C 387.078 308.275, 383.588 304.600, 383.694 304.150 C 383.801 303.701, 383.351 303.316, 382.694 303.296 C 382.038 303.275, 378.827 301.625, 375.560 299.630 C 365.205 293.305, 359.829 291.748, 347 291.361 C 338.870 291.116, 333.921 291.456, 330.112 292.522 M 450.310 306.946 C 442.521 310.482, 434 320.124, 434 325.401 C 434 328.112, 437.756 331.002, 441.250 330.978 C 454.020 330.892, 469.770 312.155, 461.777 306.557 C 458.849 304.506, 455.430 304.622, 450.310 306.946 M 338.500 317.386 C 334.790 319.003, 332.604 321.524, 333.311 323.369 C 333.643 324.235, 337.388 325.405, 343.173 326.453 C 357.443 329.037, 362.842 330.829, 364.644 333.579 C 366.095 335.793, 366.092 336.211, 364.608 338.475 C 363.716 339.836, 361.596 341.974, 359.896 343.225 C 356.888 345.439, 354 349.751, 354 352.028 C 354 352.648, 355.789 351.625, 357.975 349.753 C 360.162 347.882, 366.041 344.134, 371.040 341.425 C 385.469 333.606, 388.555 329.464, 383.624 324.533 C 377.649 318.558, 346.962 313.698, 338.500 317.386 M 476 317.121 C 472.359 318.568, 468.053 322.983, 466.365 327 C 464.085 332.425, 460.301 335.689, 452.588 338.886 C 442.352 343.129, 434.816 344.321, 421.471 343.810 C 408.629 343.319, 408.449 344.430, 421.094 346.132 C 431.679 347.557, 450 346.735, 456.500 344.544 C 469.028 340.321, 469.514 340.057, 471.469 336.428 C 473.662 332.356, 476.254 330.796, 483.766 329.031 C 491.811 327.140, 494.415 322.045, 489.365 318.073 C 486.499 315.818, 480.373 315.382, 476 317.121 M 316.500 327.394 C 308.707 329.849, 305.884 332.741, 308.614 335.471 C 312.232 339.089, 327.340 335.870, 330.379 330.834 C 332.978 326.525, 325.299 324.622, 316.500 327.394 M 496.266 328.433 C 493.387 329.786, 487.762 332.784, 483.766 335.096 C 472.489 341.617, 440 363.127, 440 364.071 C 440 364.945, 458.495 358.627, 472.500 352.969 C 476.900 351.192, 485 348.435, 490.500 346.842 C 501.866 343.552, 506.340 340.036, 507.581 333.417 C 508.940 326.177, 504.876 324.387, 496.266 328.433 M 327 338.707 C 319.953 339.932, 311.727 342.539, 305 345.680 C 300.875 347.607, 296.488 349.198, 295.250 349.216 C 292.511 349.257, 292.431 350.076, 294.871 353.089 C 297.482 356.313, 301.749 356.055, 312 352.052 C 324.156 347.306, 329.258 346.102, 340 345.448 C 350.586 344.803, 359 343.249, 359 341.939 C 359 340.017, 348.445 338.003, 339.068 338.136 C 333.806 338.211, 328.375 338.468, 327 338.707 M 505.083 346.102 C 501.646 350.751, 492.297 354.602, 478.500 357.054 C 471.900 358.227, 464.925 359.732, 463 360.398 C 456.144 362.772, 430.792 378.298, 424.970 383.688 C 419.199 389.031, 414.270 395.603, 415.278 396.611 C 416.105 397.439, 428.323 391.534, 434.637 387.255 C 445.970 379.575, 451.168 377.722, 470.206 374.576 C 495.458 370.403, 506.786 362.624, 507.814 348.750 C 508.049 345.587, 508.046 343, 507.808 343 C 507.571 343, 506.344 344.396, 505.083 346.102 M 396.724 349.408 C 389.767 350.902, 385.612 353.761, 385.184 357.349 C 385.010 358.807, 385.010 360.031, 385.184 360.069 C 385.358 360.107, 392.482 360.485, 401.016 360.909 C 409.550 361.332, 417.532 362.214, 418.754 362.868 C 422.420 364.830, 422.647 368.483, 419.361 372.636 C 417.787 374.625, 415.711 377.271, 414.747 378.516 C 412.773 381.064, 411.285 387.007, 412.625 386.988 C 413.106 386.981, 414.494 385.441, 415.708 383.565 C 416.923 381.689, 422.111 376.816, 427.237 372.735 C 432.363 368.654, 437.781 363.860, 439.278 362.081 C 443.982 356.491, 442.339 352.310, 434.316 349.449 C 429.437 347.709, 404.761 347.682, 396.724 349.408 M 335 352.683 C 333.075 352.882, 325.890 354.214, 319.034 355.642 C 309.914 357.541, 304.746 358.107, 299.784 357.752 C 296.053 357.485, 293 357.649, 293 358.116 C 293 358.583, 295.004 361.057, 297.454 363.614 L 301.908 368.262 309.704 367.755 C 314.447 367.447, 320.829 366.122, 326 364.374 C 334.395 361.536, 334.787 361.500, 357.697 361.500 C 374.346 361.500, 381.232 361.163, 382.091 360.305 C 383.544 358.857, 383.228 358.772, 365.500 355.872 C 339.867 351.678, 342.269 351.930, 335 352.683 M 350.078 365.989 C 345.995 367.094, 336.848 370.700, 329.749 374.004 C 315.839 380.478, 309.465 382.513, 305.481 381.752 C 300.879 380.872, 301.956 382.698, 307.910 385.872 C 317.162 390.802, 321.152 390.376, 340.500 382.389 C 366.934 371.477, 375.979 367.998, 377.784 368.048 C 378.728 368.074, 377.511 368.792, 375.079 369.643 C 368.793 371.843, 364.668 374.673, 355.072 383.362 C 340.007 397.005, 328.796 399.902, 314.264 393.907 C 311.791 392.887, 310.752 392.848, 309.856 393.744 C 306.318 397.282, 318.373 401.442, 330.338 400.811 C 339.305 400.338, 345.995 397.853, 355.775 391.361 C 364.735 385.414, 370.731 383.821, 386 383.333 C 402.396 382.808, 406.885 381.777, 410.759 377.647 C 414.559 373.596, 415.277 371.420, 413.425 369.568 C 411.123 367.266, 405.809 366.679, 392.102 367.212 C 385.171 367.482, 380.620 367.413, 381.990 367.059 C 386.882 365.793, 381.846 364.685, 369.587 364.331 C 359.819 364.048, 356.076 364.366, 350.078 365.989 M 326.446 369.087 C 325.299 370.943, 327.698 372.495, 329.458 371.035 C 330.306 370.331, 331 369.360, 331 368.878 C 331 367.619, 327.247 367.792, 326.446 369.087 M 496.403 370.018 C 491.246 373.322, 482.244 375.941, 467.030 378.562 C 458.627 380.010, 450.343 382.070, 447.270 383.477 C 441.573 386.085, 430 394.516, 430 396.058 C 430 397.886, 435.125 396.966, 440.779 394.124 C 448.128 390.430, 449.930 390.096, 465.232 389.592 C 486.817 388.881, 493.494 384.972, 500.828 368.750 C 501.417 367.446, 499.607 367.965, 496.403 370.018 M 311 371.157 C 308.525 371.673, 304.163 371.926, 301.307 371.720 C 296.719 371.389, 296.218 371.538, 297.003 373.005 C 298.616 376.019, 300.798 377.124, 306.256 377.687 C 313.374 378.422, 323 375.778, 323 373.089 C 323 370.103, 319.083 369.472, 311 371.157 M 483.500 390.236 C 479.611 391.816, 475.613 392.352, 465.500 392.649 C 451.570 393.058, 446.561 394.096, 445.527 396.790 C 443.144 403, 465.616 405.232, 477.792 399.994 C 481.168 398.542, 483.766 396.403, 486.340 392.954 C 490.474 387.418, 490.463 387.407, 483.500 390.236 M 378.500 389.631 C 371.353 390.738, 364.031 393.518, 352.622 399.456 C 335.847 408.186, 332.403 408.555, 315 403.477 C 309.276 401.807, 338.206 428.597, 344.872 431.139 C 349.858 433.040, 370.998 438.919, 378.197 440.406 C 398.883 444.679, 427.147 444.538, 436.242 440.116 C 440.724 437.937, 456 426.253, 456 425.004 C 456 424.602, 453.188 424.030, 449.750 423.733 C 446.313 423.435, 438.325 421.496, 432 419.423 C 422.114 416.183, 419.167 415.644, 411 415.581 C 400.783 415.502, 393.834 417.687, 393.190 421.183 C 392.622 424.258, 396.993 425.380, 411.760 425.950 C 432.500 426.750, 429.794 428.522, 408 428.412 C 392.847 428.335, 388.978 427.971, 379.146 425.693 C 372.902 424.246, 366.424 422.261, 364.752 421.281 C 354.735 415.413, 360.862 410.295, 380.500 408.126 C 397.869 406.207, 404.266 403.221, 404.807 396.778 C 405.254 391.444, 402.593 390.064, 390.900 389.566 C 385.730 389.346, 380.150 389.375, 378.500 389.631 M 437.500 397 C 436.594 398.466, 437.847 400, 439.952 400 C 441.805 400, 443.368 397.701, 442.264 396.598 C 441.309 395.642, 438.175 395.907, 437.500 397 M 418.353 402.366 C 414.406 403.662, 404.999 409.689, 405.001 410.920 C 405.002 411.239, 408.490 411.508, 412.751 411.518 C 419.381 411.533, 422.467 412.219, 434.112 416.268 C 450.817 422.075, 456.340 422.440, 463.054 418.178 C 467.547 415.327, 477.456 405.123, 476.582 404.249 C 476.321 403.988, 473.979 404.501, 471.376 405.388 C 464.691 407.665, 456.881 407.393, 445.947 404.501 C 433.979 401.336, 423.870 400.554, 418.353 402.366 M 372.686 412.017 C 366.082 413.999, 365.850 416.923, 372.097 419.422 C 378.573 422.013, 389.158 420.789, 391.381 417.192 C 394.187 412.652, 381.902 409.250, 372.686 412.017 M 351 437 C 351 438.052, 366.667 447.923, 376.500 453.067 C 387.902 459.031, 395.109 461.390, 399.444 460.577 C 403.504 459.815, 426.318 448.527, 428.075 446.410 C 429.193 445.062, 428.714 444.979, 423.920 445.693 C 415.121 447.003, 394.260 446.402, 383.500 444.529 C 378 443.572, 368.438 441.338, 362.250 439.564 C 356.063 437.791, 351 436.637, 351 437 M 209.225 493.750 L 209.500 509.500 219.551 509.451 C 232.144 509.390, 236.303 507.596, 239.856 500.691 C 244.030 492.580, 240.931 483.568, 232.610 479.619 C 230.163 478.458, 226.333 478, 219.073 478 L 208.949 478 209.225 493.750 M 248 494 L 248 510 260.500 510 L 273 510 273 506 L 273 502 265.139 502 C 257.292 502, 257.278 501.995, 257.755 499.500 C 258.206 497.144, 258.602 497, 264.617 497 L 271 497 271 493.500 L 271 490 264.500 490 C 258.715 490, 258 489.785, 258 488.044 C 258 486.309, 258.821 486.054, 265.250 485.794 L 272.500 485.500 272.810 481.750 L 273.121 478 260.560 478 L 248 478 248 494 M 292 482 L 292 486 296.468 486 L 300.937 486 301.218 497.750 L 301.500 509.500 306.250 509.805 L 311 510.110 311 498.055 L 311 486 315.500 486 L 320 486 320 482 L 320 478 306 478 L 292 478 292 482 M 325 494.030 L 325 510.060 337.750 509.780 L 350.500 509.500 350.810 505.750 L 351.121 502 343.060 502 C 335.129 502, 335 501.960, 335 499.500 C 335 497.090, 335.233 497, 341.500 497 L 348 497 348 493.500 L 348 490 341.500 490 C 335.667 490, 335 489.795, 335 488 C 335 486.178, 335.667 486, 342.500 486 L 350 486 350 482 L 350 478 337.500 478 L 325 478 325 494.030 M 357 494.055 L 357 510.110 361.750 509.805 C 366.454 509.503, 366.503 509.464, 366.810 505.750 C 367.230 500.675, 369.878 500.774, 373.500 506 C 376.091 509.738, 376.590 510, 381.136 510 C 383.811 510, 386 509.744, 386 509.430 C 386 509.117, 384.612 506.843, 382.916 504.378 L 379.832 499.895 382.416 497.311 C 384.452 495.275, 385 493.744, 385 490.086 C 385 480.973, 380.461 478, 366.550 478 L 357 478 357 494.055 M 391.147 489.433 C 391.452 499.053, 391.838 501.314, 393.576 503.683 C 398.023 509.746, 406.053 511.521, 413.576 508.105 C 419.580 505.378, 421 501.636, 421 488.544 L 421 477.890 416.250 478.195 L 411.500 478.500 411.216 489.288 C 410.941 499.708, 410.848 500.107, 408.474 501.010 C 402.731 503.193, 401 500.079, 401 487.566 L 401 478 395.892 478 L 390.784 478 391.147 489.433 M 434.990 480.250 C 429.340 484.095, 427.500 487.449, 427.500 493.901 C 427.500 498.629, 427.987 500.295, 430.233 503.239 C 435.302 509.884, 444.859 511.593, 454.480 507.573 C 457.999 506.103, 458 506.100, 458 499.551 L 458 493 453.500 493 L 449 493 449 497 C 449 501.215, 448.516 501.547, 443 501.115 C 437.360 500.674, 434.854 492.077, 439.189 488.039 C 441.800 485.606, 446.679 485.387, 449.786 487.562 C 451.848 489.007, 452.246 488.961, 455.057 486.959 C 458.651 484.401, 458.476 483.266, 454.025 480.250 C 451.465 478.515, 449.283 478, 444.500 478 C 439.712 478, 437.541 478.514, 434.990 480.250 M 465 494 L 465 510 469.500 510 L 474 510 474 505.622 C 474 499.905, 476.335 497.605, 478.704 500.988 C 483.955 508.485, 486.040 510, 491.104 510 C 493.797 510, 496 509.681, 496 509.291 C 496 508.902, 493.300 505.099, 490 500.842 C 486.700 496.585, 484.002 492.741, 484.004 492.301 C 484.007 491.860, 486.482 488.728, 489.504 485.340 C 492.527 481.951, 495 478.914, 495 478.590 C 495 478.265, 492.788 478, 490.084 478 C 485.330 478, 484.983 478.204, 479.584 484.170 L 474 490.341 474 484.170 L 474 478 469.500 478 L 465 478 465 494 M 500 494.030 L 500 510.060 512.750 509.780 L 525.500 509.500 525.810 505.750 L 526.121 502 518.060 502 C 510.129 502, 510 501.960, 510 499.500 C 510 497.090, 510.233 497, 516.500 497 L 523 497 523 493.500 L 523 490 516.500 490 C 510.667 490, 510 489.795, 510 488 C 510 486.178, 510.667 486, 517.500 486 L 525 486 525 482 L 525 478 512.500 478 L 500 478 500 494.030 M 532 494 L 532 510 544.500 510 L 557 510 557 506 L 557 502 549.218 502 C 541.639 502, 541.431 501.935, 541.229 499.500 C 541.027 497.052, 541.168 497, 548.011 497 L 555 497 555 493.500 L 555 490 548 490 C 541.717 490, 541 489.800, 541 488.042 C 541 486.292, 541.822 486.053, 548.750 485.792 L 556.500 485.500 556.810 481.750 L 557.121 478 544.560 478 L 532 478 532 494 M 563.440 479.296 C 563.166 480.009, 563.068 487.096, 563.221 495.046 L 563.500 509.500 568.250 509.805 L 573 510.110 573 506.055 C 573 502.505, 573.280 502.005, 575.250 502.038 C 576.719 502.063, 578.451 503.451, 580.240 506.038 C 582.748 509.663, 583.364 510, 587.490 510 C 589.971 510, 592 509.540, 592 508.979 C 592 508.417, 590.807 506.155, 589.350 503.953 L 586.700 499.948 588.932 497.572 C 593.963 492.217, 592.229 482.760, 585.643 479.635 C 581.241 477.546, 564.211 477.286, 563.440 479.296 M 219 494 C 219 501.731, 219.079 502, 221.351 502 C 225.065 502, 229.952 499.959, 231.021 497.961 C 234.057 492.288, 229.864 486, 223.045 486 L 219 486 219 494 M 366.500 490 C 366.500 493.828, 366.637 494, 369.679 494 C 371.427 494, 373.564 493.293, 374.429 492.429 C 376.288 490.569, 376.304 490.436, 374.965 487.934 C 374.227 486.555, 372.864 486, 370.215 486 C 366.548 486, 366.500 486.051, 366.500 490 M 573 490 C 573 493.859, 573.117 494, 576.300 494 C 580.135 494, 582 492.497, 582 489.407 C 582 486.966, 580.275 486, 575.918 486 C 573.180 486, 573 486.247, 573 490" stroke="none" fill="black" fill-rule="evenodd"/>
	<path fill-opacity="0.135" d="M 331.109 292.581 C 323.202 294.708, 318.205 297.166, 311.751 302.102 C 299.156 311.736, 291.164 327.608, 292.164 341 L 292.500 345.500 296.306 339.813 C 310.292 318.911, 337.804 307.171, 361.201 312.121 C 368.270 313.617, 377.424 317.859, 383.259 322.343 C 385.876 324.354, 388.304 326, 388.654 326 C 390.191 326, 398.009 320.399, 397.768 319.471 C 397.620 318.905, 393.297 314.522, 388.161 309.731 C 378.103 300.350, 369.349 295.263, 358.540 292.515 C 351.133 290.632, 338.241 290.664, 331.109 292.581 M 448 292.889 C 439.317 295.702, 431.121 300.272, 420.249 308.363 L 410.176 315.860 407.957 310.394 C 406.737 307.388, 405.606 305.060, 405.445 305.222 C 404.959 305.708, 398.093 336.426, 398.401 336.734 C 398.558 336.891, 405.277 334.911, 413.333 332.333 C 421.389 329.756, 427.728 327.389, 427.419 327.074 C 427.111 326.758, 424.869 325.825, 422.437 325 C 420.006 324.175, 417.900 323.070, 417.758 322.545 C 417.324 320.936, 432.084 309.218, 439.388 305.373 C 443.176 303.378, 448.576 301.134, 451.388 300.385 C 465.318 296.676, 478.237 301.065, 476.656 308.971 L 476.044 312.028 478.972 310.514 C 486.106 306.826, 493.778 309.799, 497.954 317.871 L 499.831 321.500 500.971 318.539 C 502.502 314.561, 501.770 312.260, 497.321 307.062 C 492.390 301.301, 483.207 295.453, 475.217 292.985 C 467.101 290.478, 455.568 290.438, 448 292.889 M 452.698 306.422 C 444.910 309.245, 437.459 316.032, 434.975 322.567 C 433.704 325.908, 435.806 329.662, 439.460 330.579 C 447.237 332.531, 461.788 321.466, 463.592 312.227 C 464.659 306.760, 459.439 303.978, 452.698 306.422 M 342.500 316.704 C 335.527 318.128, 331.298 322.024, 334.737 323.855 C 335.707 324.371, 340.349 325.512, 345.052 326.392 C 361.827 329.527, 366 331.528, 366 336.435 C 366 337.297, 363.561 340.364, 360.579 343.251 C 357.598 346.138, 354.848 349.625, 354.467 351 C 353.821 353.336, 354.028 353.264, 357.638 349.889 C 359.762 347.903, 365.775 343.914, 371 341.025 C 382.442 334.699, 385 332.498, 385 328.981 C 385 325.628, 382.568 323.399, 376.362 321.063 C 369.002 318.293, 347.971 315.586, 342.500 316.704 M 476.684 317.449 C 471.638 319.249, 469.118 321.627, 466.958 326.628 C 462.207 337.631, 446.400 344.183, 424.500 344.226 C 416.053 344.243, 414.196 344.470, 416.500 345.205 C 418.150 345.731, 426.025 346.237, 434 346.330 C 447.464 346.488, 449.205 346.288, 458.370 343.529 C 465.690 341.325, 468.661 339.933, 469.870 338.139 C 473.812 332.289, 476.644 330.216, 482.293 329.043 C 491.440 327.144, 494.494 320.858, 487.923 317.460 C 484.469 315.674, 481.667 315.671, 476.684 317.449 M 317.849 327.343 C 308.660 329.907, 305.331 334.019, 310.750 336.112 C 317.941 338.889, 332.907 332.704, 330.077 328.125 C 328.939 326.283, 323.006 325.904, 317.849 327.343 M 494.415 329.859 C 482.090 335.819, 437.733 364, 440.676 364 C 442.262 364, 456.958 358.779, 471.500 353.049 C 478.100 350.448, 487.242 347.277, 491.815 346.002 C 501.766 343.229, 504.290 341.425, 506.568 335.460 C 507.936 331.880, 508.060 330.428, 507.169 328.471 C 505.649 325.134, 503.759 325.340, 494.415 329.859 M 330.500 338.594 C 322.468 339.735, 312.683 342.608, 304.868 346.120 C 300.120 348.254, 295.733 350, 295.118 350 C 293.451 350, 293.765 351.477, 295.829 353.345 C 298.459 355.726, 301.773 355.409, 311.182 351.879 C 325.251 346.600, 328.083 345.948, 341.055 345.008 C 347.960 344.508, 354.935 343.577, 356.555 342.939 L 359.500 341.779 355.500 340.323 C 351.484 338.861, 336.106 337.798, 330.500 338.594 M 504.104 347.392 C 499.425 352.220, 492.739 354.818, 478.084 357.506 C 463.160 360.242, 462.544 360.463, 449.579 367.729 C 437.562 374.464, 432.098 378.042, 425.816 383.289 C 420.843 387.443, 415.301 394.635, 416.302 395.635 C 417.201 396.534, 428.748 390.870, 435.727 386.106 C 444.494 380.122, 451.979 377.388, 466.115 375.008 C 488.092 371.308, 498.023 367.093, 503.910 358.966 C 506.643 355.192, 508.745 347.735, 507.840 345.021 C 507.638 344.414, 505.957 345.481, 504.104 347.392 M 401.256 348.953 C 398.372 349.408, 394.920 350.054, 393.583 350.390 C 390.106 351.263, 385 355.842, 385 358.089 C 385 359.815, 385.797 360.001, 393.250 360.008 C 405.725 360.019, 417.976 361.668, 420.141 363.627 C 423.057 366.267, 422.386 369.761, 417.942 375.069 C 414.501 379.179, 411.150 386, 412.572 386 C 412.810 386, 414.692 384.132, 416.753 381.848 C 418.814 379.565, 424.650 374.391, 429.723 370.351 C 443.273 359.560, 444.933 354.579, 436.344 350.484 C 433.346 349.055, 429.639 348.594, 419.500 348.389 C 412.350 348.245, 404.140 348.499, 401.256 348.953 M 322.500 355.220 C 316.424 356.688, 310.189 357.412, 303.310 357.447 L 293.120 357.500 294.974 360.500 C 295.993 362.150, 298.329 364.556, 300.164 365.847 C 303.076 367.896, 304.325 368.131, 310 367.695 C 313.575 367.420, 321 365.730, 326.500 363.939 C 336.016 360.840, 337.129 360.697, 349.500 360.982 C 373.742 361.541, 378.497 361.501, 380.393 360.726 C 381.434 360.301, 382.051 359.717, 381.763 359.429 C 380.484 358.150, 351.499 353.777, 342 353.429 C 333.668 353.124, 329.642 353.494, 322.500 355.220 M 354 365.447 C 345.531 367.267, 342.006 368.588, 327.049 375.548 C 318.109 379.708, 312.893 381.523, 308.549 381.986 L 302.500 382.630 309 385.814 C 319.284 390.852, 320.364 390.647, 350.631 377.904 C 362.253 373.011, 374.379 368.413, 377.579 367.687 C 381.959 366.692, 382.920 366.183, 381.471 365.627 C 377.610 364.146, 360.575 364.034, 354 365.447 M 382.638 368.050 C 373.590 369.449, 367.221 372.959, 356.424 382.496 C 344.987 392.599, 338.484 396.031, 329.396 396.760 C 324.364 397.164, 321.714 396.799, 316.878 395.036 C 311.986 393.252, 310.579 393.063, 309.937 394.102 C 308.746 396.030, 309.481 396.662, 315.557 398.935 C 327.042 403.232, 340.502 400.856, 354.381 392.082 C 365.908 384.794, 369.103 383.927, 387.500 383.100 C 404.155 382.351, 406.285 381.821, 411.250 377.191 C 414.354 374.296, 414.801 370.910, 412.349 368.875 C 410.343 367.210, 391.461 366.686, 382.638 368.050 M 326.948 369.563 C 325.760 370.994, 325.868 371.150, 327.837 370.846 C 329.070 370.656, 330.095 370.061, 330.115 369.525 C 330.176 367.842, 328.358 367.864, 326.948 369.563 M 492.927 371.705 C 488.509 373.991, 482.936 375.749, 475.927 377.069 C 454.058 381.188, 450.828 381.981, 445.965 384.423 C 440.790 387.023, 430.154 394.929, 430.056 396.250 C 429.947 397.707, 434.627 396.974, 438.539 394.921 C 446.913 390.525, 450.383 389.777, 465.571 389.091 C 479.269 388.472, 481.160 388.156, 486.325 385.629 C 491.950 382.877, 495.333 379.152, 499.385 371.250 C 501.374 367.371, 501.294 367.376, 492.927 371.705 M 309.821 371.513 C 309.492 371.841, 306.509 372.148, 303.191 372.195 C 297.532 372.276, 297.231 372.398, 298.329 374.178 C 299.833 376.613, 303.134 377.519, 310 377.379 C 316.255 377.252, 323.389 374.672, 322.759 372.764 C 322.330 371.464, 310.968 370.365, 309.821 371.513 M 484 390.316 C 480.424 391.923, 476.514 392.458, 464.954 392.920 C 453.378 393.383, 449.853 393.866, 447.688 395.285 C 443.269 398.181, 445.481 400.547, 454.037 402.076 C 461.852 403.473, 471.470 402.493, 478.165 399.618 C 481.391 398.233, 489.923 389.486, 488.891 388.621 C 488.676 388.441, 486.475 389.204, 484 390.316 M 380.500 389.682 C 371.828 390.786, 366.417 392.679, 353.525 399.124 C 336.650 407.560, 330.722 408.647, 320.509 405.181 C 317.215 404.063, 314.292 403.375, 314.015 403.652 C 313.156 404.511, 333.183 423.438, 339.124 427.382 C 343.082 430.010, 348.712 432.263, 358.124 434.987 C 381.926 441.876, 386.190 442.500, 409.500 442.500 C 429.207 442.500, 430.802 442.361, 435.411 440.235 C 440.236 438.010, 455.881 426.220, 455.960 424.750 C 455.982 424.337, 453.794 424, 451.099 424 C 448.108 424, 441.189 422.397, 433.349 419.888 C 422.663 416.468, 419.069 415.763, 412 415.697 C 402.229 415.607, 395.489 417.218, 394 420 C 393.149 421.591, 393.432 422.237, 395.603 423.659 C 397.697 425.031, 401.206 425.476, 412.660 425.820 C 422.722 426.123, 426.967 426.594, 426.701 427.377 C 426.437 428.158, 420.713 428.470, 407.910 428.402 C 387.661 428.294, 375.934 426.405, 365.310 421.542 C 360.450 419.316, 359.897 418.754, 360.181 416.323 C 360.680 412.056, 365.484 409.938, 378.325 408.322 C 384.471 407.549, 391.909 406.234, 394.853 405.400 C 403.500 402.951, 407.244 397.452, 403.630 392.508 C 401.736 389.919, 389.951 388.479, 380.500 389.682 M 437.431 397.112 C 436.680 398.327, 438.895 400.159, 440.500 399.651 C 441.050 399.477, 441.645 398.584, 441.823 397.667 C 442.195 395.752, 438.556 395.292, 437.431 397.112 M 421.147 402.103 C 416.583 402.971, 409.251 406.788, 407.048 409.442 C 405.899 410.827, 406.514 411, 412.575 411 C 418.031 411, 422.061 411.905, 432.729 415.524 C 455.444 423.229, 458.857 422.808, 470.523 410.865 C 474.360 406.936, 476.600 404.061, 475.500 404.475 C 464.621 408.572, 460.502 408.577, 444 404.513 C 432.239 401.616, 426.748 401.037, 421.147 402.103 M 375.500 411.617 C 374.400 411.890, 372.242 412.600, 370.704 413.197 C 364.457 415.619, 370.632 420.395, 380.069 420.440 C 388.612 420.481, 394.213 415.790, 388.971 412.985 C 386.621 411.727, 378.422 410.895, 375.500 411.617 M 352 437.397 C 352 438.216, 370.775 449.887, 377.611 453.317 C 381.522 455.279, 387.563 457.842, 391.035 459.012 C 397.121 461.062, 397.514 461.078, 401.924 459.444 C 408.006 457.191, 428 446.882, 428 445.999 C 428 445.616, 425.413 445.728, 422.250 446.247 C 407.985 448.590, 378.391 445.240, 359 439.088 C 351.757 436.790, 352 436.849, 352 437.397 M 209.667 478.667 C 209.300 479.033, 209 486.008, 209 494.167 L 209 509 219.852 509 C 231.665 509, 234.851 507.828, 239.272 501.859 C 241.940 498.257, 242.010 490.433, 239.416 485.915 C 236.216 480.345, 230.303 478, 219.455 478 C 214.438 478, 210.033 478.300, 209.667 478.667 M 248 493.500 L 248 509 260.500 509 L 273 509 273 505.500 L 273 502 265 502 C 257.133 502, 257 501.958, 257 499.500 C 257 497.071, 257.200 497, 264 497 L 271 497 271 493.500 L 271 490 264 490 C 257.200 490, 257 489.929, 257 487.500 C 257 485.042, 257.133 485, 265 485 L 273 485 273 481.500 L 273 478 260.500 478 L 248 478 248 493.500 M 292 482 L 292 486 296.500 486 L 301 486 301 497.500 L 301 509 306 509 L 311 509 311 497.500 L 311 486 315.500 486 L 320 486 320 482 L 320 478 306 478 L 292 478 292 482 M 325 493.500 L 325 509 337.387 509 L 349.773 509 350.214 505.994 C 350.457 504.341, 350.433 502.766, 350.161 502.494 C 349.889 502.222, 346.367 502, 342.333 502 C 335.178 502, 335 501.939, 335 499.500 C 335 497.090, 335.233 497, 341.500 497 L 348 497 348 493.500 L 348 490 341.500 490 C 335.233 490, 335 489.910, 335 487.500 C 335 485.056, 335.167 485, 342.500 485 L 350 485 350 481.500 L 350 478 337.500 478 L 325 478 325 493.500 M 357 493.500 L 357 509 361.440 509 C 365.846 509, 365.882 508.972, 366.190 505.258 C 366.630 499.947, 369.190 499.805, 372.712 504.896 C 375.296 508.629, 375.848 508.927, 380.250 508.962 C 382.863 508.983, 385 508.765, 385 508.479 C 385 508.192, 383.824 506.180, 382.386 504.008 L 379.773 500.059 382.386 496.953 C 387.083 491.371, 385.221 482.756, 378.643 479.635 C 376.239 478.494, 372.449 478, 366.099 478 L 357 478 357 493.500 M 391.940 478.750 C 391.402 485.452, 392.398 500.869, 393.507 503.014 C 395.769 507.387, 399.791 509.426, 406.199 509.448 C 417.167 509.484, 420.996 503.999, 420.998 488.250 L 421 478 416.500 478 L 412 478 412 486.935 C 412 491.849, 411.566 497.012, 411.035 498.407 C 409.756 501.773, 405.581 502.836, 402.960 500.464 C 401.254 498.920, 401 497.349, 401 488.345 L 401 478 396.500 478 C 394.025 478, 391.973 478.337, 391.940 478.750 M 436.450 479.407 C 426.522 483.731, 424.191 497.037, 431.994 504.841 C 437.329 510.175, 448.616 511.099, 455.270 506.745 C 457.249 505.450, 457.462 504.594, 457.161 499.143 L 456.822 493 452.911 493 C 449.026 493, 449 493.026, 449 496.933 C 449 499.987, 448.553 501.007, 447 501.500 C 444.584 502.267, 441.127 501.314, 438.750 499.227 C 436.284 497.061, 436.428 490.572, 439 488 C 441.371 485.629, 447.563 485.305, 450.548 487.396 C 452.320 488.637, 452.853 488.523, 455.365 486.362 C 457.804 484.265, 458.006 483.712, 456.845 482.312 C 453.464 478.235, 442.671 476.697, 436.450 479.407 M 465 493.500 L 465 509 469.500 509 L 474 509 474 505.200 C 474 501.803, 475.354 499, 476.995 499 C 477.321 499, 479.305 501.250, 481.402 504 C 485.159 508.927, 485.295 509, 490.691 509 L 496.166 509 489.455 500.406 L 482.744 491.812 488.872 485.629 C 492.242 482.228, 495 479.121, 495 478.723 C 495 478.325, 492.863 477.990, 490.250 477.977 C 485.685 477.955, 485.277 478.199, 479.783 484.227 L 474.067 490.500 474.033 484.250 L 474 478 469.500 478 L 465 478 465 493.500 M 500 493.500 L 500 509 512.500 509 L 525 509 525 505.500 L 525 502 517.218 502 C 509.639 502, 509.431 501.935, 509.229 499.500 C 509.027 497.052, 509.168 497, 516.011 497 L 523 497 523 493.500 L 523 490 515.930 490 C 509.171 490, 508.875 489.901, 509.180 487.750 C 509.476 485.668, 510.078 485.478, 517.250 485.208 L 525 484.916 525 481.458 L 525 478 512.500 478 L 500 478 500 493.500 M 532 493.469 L 532 509 544.500 509 L 557 509 557 505.500 L 557 502 549 502 C 541.133 502, 541 501.958, 541 499.500 C 541 497.071, 541.200 497, 548 497 L 555 497 555 493.500 L 555 490 548 490 C 541.200 490, 541 489.929, 541 487.500 C 541 485.040, 541.129 485, 549.063 485 L 557.127 485 556.813 481.750 L 556.500 478.500 544.250 478.219 L 532 477.938 532 493.469 M 564 493.500 L 564 509 568.500 509 L 573 509 573 505 C 573 501.676, 573.336 501, 574.986 501 C 576.195 501, 578.007 502.565, 579.619 505 C 582.112 508.767, 582.553 509, 587.192 509 C 592.562 509, 592.561 509.008, 588.242 503.172 C 585.814 499.891, 585.807 499.823, 587.752 498.461 C 592.545 495.104, 593.079 486.296, 588.735 482.227 C 585.247 478.960, 581.546 478, 572.435 478 L 564 478 564 493.500 M 219 494.130 L 219 502.260 223.711 501.729 C 229.311 501.098, 232 498.393, 232 493.389 C 232 488.521, 229.100 486, 223.500 486 L 219 486 219 494.130 M 366 490 L 366 494.115 370.148 493.807 C 374.951 493.451, 377.176 491.094, 375.393 488.250 C 374.702 487.147, 372.762 486.386, 370.148 486.193 L 366 485.885 366 490 M 573 489.943 C 573 493.857, 573.115 493.999, 576.250 493.985 C 580.777 493.963, 582.217 492.778, 581.830 489.391 C 581.530 486.767, 581.108 486.472, 577.250 486.193 L 573 485.885 573 489.943" stroke="none" fill="black" fill-rule="evenodd"/>
	<path fill-opacity="0.118" d="M 331.645 292.522 C 312.277 297.416, 296.378 313.770, 292.947 332.327 C 292.363 335.491, 292.023 339.747, 292.192 341.784 L 292.500 345.490 295.852 340.248 C 300.874 332.395, 312.671 321.894, 321.194 317.689 C 342.499 307.177, 367.022 309.112, 383.668 322.618 C 385.961 324.478, 388.108 326, 388.440 326 C 388.910 326, 395.486 322.031, 397.945 320.263 C 398.962 319.532, 383.986 305.530, 377.676 301.311 C 367.901 294.775, 358.679 291.789, 347 291.377 C 340.858 291.161, 335.430 291.565, 331.645 292.522 M 452.500 292.020 C 442.525 294.017, 432.874 299.126, 419.234 309.633 C 414.688 313.135, 410.742 316, 410.465 316 C 410.188 316, 408.938 313.666, 407.688 310.814 L 405.416 305.629 402.136 320.348 C 400.332 328.444, 399.001 335.390, 399.178 335.784 C 399.355 336.178, 405.800 334.397, 413.500 331.826 C 428.414 326.847, 428.547 326.681, 419.446 324.397 C 418.091 324.057, 416.761 323.423, 416.493 322.988 C 415.580 321.511, 433.463 307.915, 441.754 303.783 C 448.748 300.297, 451.192 299.601, 457.754 299.224 C 470.996 298.464, 477.831 301.886, 476.820 308.770 L 476.413 311.545 480.217 309.663 C 487.014 306.300, 493.908 309.195, 497.791 317.042 L 499.807 321.116 500.978 317.567 C 502.368 313.354, 501.184 311.252, 493.221 303.803 C 482.491 293.766, 466.659 289.185, 452.500 292.020 M 450.305 307.443 C 446.273 309.228, 438.295 316.529, 436.423 320.148 C 433.200 326.382, 435.327 330.273, 441.909 330.182 C 449.040 330.083, 458.374 323.279, 462.430 315.221 C 463.832 312.436, 463.886 311.532, 462.783 309.221 C 461.728 307.010, 460.737 306.456, 457.493 306.265 C 455.297 306.135, 452.062 306.666, 450.305 307.443 M 339 317.636 C 336.592 318.640, 334 321.204, 334 322.584 C 334 323.343, 336.325 324.296, 339.750 324.941 C 352.671 327.374, 362.382 330.036, 364.138 331.625 C 367.522 334.687, 366.503 338.049, 360.508 343.602 C 353.971 349.656, 353.167 352.491, 359.318 347.796 C 361.692 345.983, 367.333 342.510, 371.853 340.078 C 376.373 337.646, 381.181 334.547, 382.536 333.191 C 388.153 327.574, 383.752 322.843, 369.781 319.479 C 363.122 317.875, 341.528 316.582, 339 317.636 M 473.984 318.836 C 471.612 320.087, 469.487 322.553, 467.324 326.567 C 465.578 329.809, 463.103 333.325, 461.824 334.380 C 455.034 339.986, 439.004 344.717, 425.500 345.101 L 419.500 345.272 427 346.142 C 431.125 346.621, 437.842 346.739, 441.926 346.405 C 451.098 345.653, 468.130 340.698, 469.500 338.382 C 472.743 332.898, 476.254 330.111, 481.275 329.034 C 484.134 328.421, 487.492 327.252, 488.737 326.437 C 491.477 324.641, 491.684 320.929, 489.171 318.655 C 486.666 316.388, 478.444 316.486, 473.984 318.836 M 497.988 328.315 C 489.666 331.739, 446.952 358.109, 441.500 363.188 C 440.417 364.197, 460.834 357.088, 473.014 352.215 C 477.146 350.561, 484.571 347.982, 489.514 346.483 C 501.056 342.982, 503.627 341.621, 505.483 338.033 C 507.528 334.079, 507.490 327.402, 505.418 326.607 C 503.493 325.868, 504.497 325.637, 497.988 328.315 M 316.994 327.912 C 304.465 331.835, 305.485 336.871, 318.588 335.784 C 324.669 335.280, 329.500 332.450, 329.500 329.392 C 329.500 327.813, 328.673 327.469, 324.500 327.313 C 321.750 327.211, 318.372 327.480, 316.994 327.912 M 320.195 341.024 C 316.177 342.076, 309.370 344.527, 305.069 346.469 C 300.768 348.411, 296.502 350, 295.589 350 C 294.243 350, 294.130 350.375, 294.994 351.988 C 296.963 355.668, 300.451 355.504, 312.321 351.172 C 326.914 345.847, 329.597 345.231, 341.500 344.471 C 347 344.120, 353.075 343.335, 355 342.727 L 358.500 341.621 354.500 340.387 C 348.121 338.420, 328.764 338.779, 320.195 341.024 M 503.603 348.525 C 498.536 353, 491.616 355.515, 477.343 358.070 C 470.964 359.212, 464.564 360.591, 463.122 361.134 C 459.605 362.458, 439.627 373.605, 434 377.383 C 427.931 381.459, 419.131 389.846, 417.387 393.218 C 415.990 395.920, 416.006 395.948, 418.450 395.019 C 423.090 393.255, 429.484 389.770, 436.139 385.376 C 445.121 379.447, 453.113 376.642, 468.252 374.103 C 494.462 369.709, 505.347 362.886, 507.026 349.800 C 507.364 347.160, 507.610 345.019, 507.571 345.042 C 507.532 345.065, 505.746 346.632, 503.603 348.525 M 405.019 349.041 C 400.354 349.516, 394.598 350.646, 392.227 351.551 C 387.763 353.256, 384.006 357.449, 385.601 358.946 C 386.096 359.409, 393.025 359.981, 401 360.216 C 424.651 360.912, 427.462 364.113, 416.469 377.828 C 414.561 380.208, 413.005 382.908, 413.011 383.828 C 413.019 384.996, 413.776 384.544, 415.525 382.325 C 416.901 380.579, 421.058 376.790, 424.763 373.904 C 440.170 361.905, 443.739 356.702, 439.250 352.781 C 435.072 349.132, 420.136 347.500, 405.019 349.041 M 319.500 356.111 C 309.329 358.260, 303.920 358.926, 299.721 358.547 C 294.458 358.071, 294.027 358.180, 294.885 359.762 C 295.404 360.718, 297.246 362.850, 298.980 364.500 C 301.798 367.183, 302.784 367.496, 308.316 367.461 C 312.479 367.435, 318.095 366.296, 325.500 363.977 C 337.330 360.272, 341.186 360.004, 367.500 361.059 C 375.099 361.364, 379.118 361.123, 380.500 360.280 C 381.600 359.610, 381.967 359.047, 381.316 359.030 C 380.665 359.014, 372.123 357.650, 362.335 356 C 352.547 354.350, 342.054 353.034, 339.019 353.076 C 335.984 353.118, 327.200 354.484, 319.500 356.111 M 349.412 366.969 C 345.514 367.991, 336.322 371.642, 328.986 375.082 C 318.922 379.801, 314.156 381.480, 309.573 381.918 L 303.500 382.500 307.329 384.763 C 312.351 387.731, 317.459 388.757, 323 387.913 C 325.475 387.536, 337.229 383.129, 349.119 378.120 C 361.010 373.111, 373.381 368.413, 376.610 367.680 C 382.345 366.377, 382.403 366.331, 379.115 365.673 C 372.597 364.369, 356.676 365.064, 349.412 366.969 M 383.682 368.069 C 374.035 369.394, 367.769 372.737, 356.676 382.473 C 351.352 387.145, 344.634 392.171, 341.748 393.640 C 334.918 397.118, 324.520 397.946, 318 395.533 C 310.077 392.601, 310 392.594, 310 394.801 C 310 400.076, 331.005 402.601, 341.500 398.588 C 344.250 397.536, 349.224 394.965, 352.552 392.873 C 365.867 384.508, 368.691 383.704, 387.263 382.990 C 403.786 382.355, 404.114 382.299, 408.264 379.382 C 413.373 375.791, 415.177 371.748, 412.751 369.323 C 410.745 367.316, 394.319 366.608, 383.682 368.069 M 327 370 C 327 370.550, 327.423 371, 327.941 371 C 328.459 371, 329.160 370.550, 329.500 370 C 329.840 369.450, 329.416 369, 328.559 369 C 327.702 369, 327 369.450, 327 370 M 495.500 371.068 C 490.721 374.131, 481.493 376.768, 467.520 379.066 C 451.559 381.690, 445.607 383.853, 437.749 389.885 C 427.453 397.789, 428.770 399.034, 441.374 393.310 C 449.193 389.759, 450.067 389.592, 464.500 388.896 C 472.750 388.498, 481.219 387.654, 483.321 387.020 C 488.387 385.491, 494.581 379.760, 497.595 373.813 C 500.263 368.548, 499.990 368.191, 495.500 371.068 M 308.500 372.146 C 306.300 372.690, 302.700 372.912, 300.500 372.638 L 296.500 372.142 299.306 374.571 C 301.701 376.645, 303.091 376.989, 308.806 376.924 C 316.330 376.838, 322.500 375.030, 322.500 372.911 C 322.500 371.151, 314.328 370.705, 308.500 372.146 M 484 390.803 C 481.695 391.802, 475.379 392.548, 465.500 392.987 C 450.705 393.644, 446 394.712, 446 397.413 C 446 400.634, 449.158 401.500, 460.902 401.500 C 475.065 401.500, 480.387 399.824, 485.094 393.881 C 486.825 391.696, 488.074 389.768, 487.871 389.596 C 487.667 389.425, 485.925 389.968, 484 390.803 M 371.299 391.533 C 368.438 392.304, 360.235 395.941, 353.069 399.616 C 341.290 405.657, 339.343 406.342, 332.770 406.755 C 327.145 407.110, 324.201 406.754, 319.757 405.185 C 314.387 403.288, 314.076 403.273, 314.976 404.955 C 316.468 407.742, 333.383 423.336, 339.250 427.332 C 343.109 429.961, 348.633 432.098, 360.101 435.398 C 381.486 441.552, 394.429 443.321, 414.508 442.836 C 429.491 442.475, 430.928 442.270, 436.031 439.764 C 439.039 438.287, 444.599 434.501, 448.386 431.351 C 455.771 425.207, 455.760 424.234, 448.298 424.070 C 446.538 424.032, 439.338 422.158, 432.298 419.907 C 421.496 416.453, 418.174 415.812, 411 415.801 C 399.056 415.781, 390.348 419.554, 394.459 422.966 C 396.661 424.794, 408.009 426.228, 415.516 425.627 C 423.223 425.010, 427.284 425.645, 426.709 427.377 C 425.502 431.015, 395.348 429.843, 376.950 425.444 C 364.647 422.502, 360 420.097, 360 416.670 C 360 411.709, 364.887 409.578, 380 407.951 C 385.225 407.388, 391.864 406.207, 394.753 405.326 C 404.377 402.392, 407.834 396.374, 402.365 392.073 C 400.030 390.236, 398.410 390.007, 388.115 390.066 C 381.514 390.103, 374.255 390.736, 371.299 391.533 M 438.688 396.646 C 437.383 397.950, 438.006 399, 440.083 399 C 441.247 399, 441.992 398.476, 441.771 397.813 C 441.284 396.351, 439.614 395.719, 438.688 396.646 M 415.500 404.368 C 412.750 405.660, 409.747 407.568, 408.826 408.608 C 407.204 410.441, 407.360 410.505, 413.826 410.649 C 418.868 410.761, 423.790 411.922, 433.958 415.399 C 454.665 422.478, 460.021 421.824, 470.475 410.941 C 473.614 407.673, 476.028 405.005, 475.841 405.011 C 475.653 405.017, 473.291 405.692, 470.591 406.511 C 463.432 408.683, 457.909 408.363, 444.500 405 C 429.740 401.298, 422.377 401.138, 415.500 404.368 M 372.500 412.724 C 367.339 413.992, 367.200 417.177, 372.229 418.930 C 379.088 421.321, 391 419.230, 391 415.635 C 391 412.701, 379.777 410.935, 372.500 412.724 M 354.500 438.780 C 356.400 440.820, 373.523 451.146, 380.500 454.458 C 384.350 456.286, 389.803 458.464, 392.618 459.298 L 397.736 460.814 407.618 456.592 C 413.053 454.269, 419.750 450.911, 422.500 449.128 C 427.453 445.916, 427.467 445.893, 424 446.581 C 417.741 447.824, 393.799 447.192, 384.500 445.539 C 376.642 444.142, 360.407 440.136, 355.251 438.322 C 354.032 437.893, 353.804 438.032, 354.500 438.780 M 210 493.387 L 210 509 219.750 508.998 C 231.014 508.997, 235.121 507.504, 238.730 502.102 C 241.556 497.871, 241.802 490.172, 239.250 485.835 C 236.004 480.320, 231.691 478.576, 220.254 478.153 L 210 477.773 210 493.387 M 248 493.469 L 248 509 260.500 509 L 273 509 273 505.500 L 273 502 265 502 C 257.133 502, 257 501.958, 257 499.500 C 257 497.071, 257.200 497, 264 497 L 271 497 271 493.500 L 271 490 264 490 C 257.232 490, 257 489.919, 257 487.542 C 257 485.168, 257.265 485.074, 264.750 484.792 L 272.500 484.500 272.500 481.500 L 272.500 478.500 260.250 478.219 L 248 477.938 248 493.469 M 292.190 481.750 C 292.497 485.464, 292.546 485.503, 297.250 485.805 L 302 486.110 302 497.555 L 302 509 306.500 509 L 311 509 311 497.557 L 311 486.115 315.250 485.807 C 319.375 485.509, 319.509 485.390, 319.810 481.750 L 320.121 478 306 478 L 291.879 478 292.190 481.750 M 325.697 478.637 C 325.314 479.020, 325 486.008, 325 494.167 L 325 509 337.500 509 L 350 509 350 505.500 L 350 502 342 502 C 334.133 502, 334 501.958, 334 499.500 C 334 497.071, 334.200 497, 341 497 L 348 497 348 493.500 L 348 490 341 490 C 334.200 490, 334 489.929, 334 487.500 C 334 485.040, 334.129 485, 342.063 485 L 350.127 485 349.813 481.750 L 349.500 478.500 337.947 478.220 C 331.592 478.066, 326.080 478.253, 325.697 478.637 M 357 493.500 L 357 509 361.500 509 L 366 509 366 505 C 366 501.512, 366.288 501.003, 368.250 501.021 C 369.721 501.035, 371.475 502.421, 373.315 505.021 C 375.874 508.638, 376.533 509, 380.565 509 C 383.004 509, 385 508.705, 385 508.344 C 385 507.984, 383.875 506.214, 382.500 504.411 C 379.468 500.436, 379.455 500.209, 382.116 497.377 C 385.353 493.931, 385.751 487.205, 382.930 483.629 C 379.603 479.413, 375.237 478, 365.532 478 L 357 478 357 493.500 M 392 488.992 C 392 501.608, 393.126 504.979, 398.218 507.613 C 402.297 509.722, 411.287 509.697, 414.537 507.568 C 419.569 504.270, 420.500 501.458, 420.500 489.546 L 420.500 478.500 416.250 478.193 L 412 477.885 412 487.720 C 412 498.486, 410.688 502.013, 406.693 501.985 C 402.099 501.953, 401.528 500.680, 401 489.290 L 400.500 478.500 396.250 478.193 L 392 477.885 392 488.992 M 435.962 480.250 C 430.078 483.217, 426.474 489.928, 427.501 496.007 C 428.286 500.654, 431.836 505.346, 436.320 507.666 C 440.184 509.664, 448.512 509.648, 453.332 507.635 L 457 506.102 457 499.551 L 457 493 453.057 493 C 449.134 493, 449.114 493.021, 448.807 497.250 C 448.523 501.177, 448.268 501.523, 445.447 501.799 C 443.492 501.990, 441.423 501.334, 439.697 499.976 C 436.072 497.125, 435.799 489.955, 439.223 487.557 C 442.019 485.598, 447.907 485.546, 450.633 487.456 C 452.534 488.787, 452.940 488.672, 455.394 486.110 C 458.441 482.930, 458.007 482.154, 451.705 479.521 C 446.578 477.379, 441.158 477.630, 435.962 480.250 M 465 493.500 L 465 509 469.500 509 L 474 509 474 505.200 C 474 501.707, 475.360 499, 477.115 499 C 477.508 499, 479.481 501.250, 481.500 504 C 485.127 508.941, 485.235 509, 490.628 509 L 496.085 509 490.378 501.750 C 487.239 497.762, 484.247 493.946, 483.729 493.269 C 483.068 492.405, 484.637 490.023, 488.999 485.269 L 495.211 478.500 490.454 478.189 C 485.761 477.882, 485.618 477.963, 479.895 484.189 L 474.094 490.500 474.047 484.250 L 474 478 469.500 478 L 465 478 465 493.500 M 500.697 478.637 C 500.314 479.020, 500 486.008, 500 494.167 L 500 509 512.500 509 L 525 509 525 505.500 L 525 502 517 502 C 509.133 502, 509 501.958, 509 499.500 C 509 497.071, 509.200 497, 516 497 L 523 497 523 493.500 L 523 490 516 490 C 509.200 490, 509 489.929, 509 487.500 C 509 485.040, 509.129 485, 517.063 485 L 525.127 485 524.813 481.750 L 524.500 478.500 512.947 478.220 C 506.592 478.066, 501.080 478.253, 500.697 478.637 M 532 493.500 L 532 509 544.500 509 L 557 509 557 505.500 L 557 502 549 502 C 541.133 502, 541 501.958, 541 499.500 C 541 497.069, 541.196 497, 548.063 497 L 555.127 497 554.813 493.750 L 554.500 490.500 547.750 490.204 C 541.330 489.923, 541 489.788, 541 487.454 C 541 485.067, 541.204 485, 548.500 485 L 556 485 556 481.500 L 556 478 544 478 L 532 478 532 493.500 M 564 493.384 L 564 509 568.500 509 L 573 509 573 505 C 573 499.567, 575.850 499.558, 579.685 504.979 C 582.295 508.667, 582.851 508.959, 587.309 508.979 C 592.545 509.002, 592.541 509.030, 588.166 503.203 L 585.690 499.905 587.816 498.416 C 591.181 496.060, 592.516 490.171, 590.681 485.780 C 588.280 480.033, 585.150 478.617, 573.838 478.163 L 564 477.767 564 493.384 M 219 494 L 219 502 222.865 502 C 228.527 502, 232 498.931, 232 493.927 C 232 488.484, 229.336 486, 223.500 486 L 219 486 219 494 M 366 490 L 366 494.115 370.148 493.807 C 374.951 493.451, 377.176 491.094, 375.393 488.250 C 374.702 487.147, 372.762 486.386, 370.148 486.193 L 366 485.885 366 490 M 573 490 C 573 493.994, 573.006 494, 576.965 494 C 579.906 494, 581.206 493.484, 582 492 C 583.821 488.598, 581.640 486, 576.965 486 C 573.006 486, 573 486.006, 573 490" stroke="none" fill="black" fill-rule="evenodd"/>
	<path fill-opacity="0.134" d="M 336 291.624 C 318.977 294.921, 304.123 305.860, 297.014 320.335 C 293.883 326.711, 290.846 342.228, 292.438 343.718 C 292.898 344.148, 293.471 343.948, 293.713 343.273 C 294.772 340.310, 303.528 330.101, 308.702 325.794 C 316.195 319.558, 323.856 315.582, 333.447 312.951 C 339.950 311.167, 343.171 310.870, 351.912 311.247 C 365.012 311.812, 371.015 313.749, 381.304 320.728 L 389.109 326.021 393.755 322.825 L 398.401 319.628 389.138 310.920 C 375.038 297.665, 363.189 292.140, 347.500 291.505 C 342.550 291.304, 337.375 291.358, 336 291.624 M 450.363 307.922 C 442.732 311.387, 435 320.149, 435 325.330 C 435 327.963, 437.994 330, 441.866 330 C 450.110 330, 463 318.364, 463 310.922 C 463 305.896, 457.632 304.622, 450.363 307.922 M 475.500 318.412 C 471.818 320.048, 468.739 323.447, 467.039 327.755 C 463.570 336.539, 449.575 343.244, 431.022 345.011 C 423.270 345.750, 423.765 345.804, 436.500 345.612 C 448.657 345.429, 451.656 345.036, 459.282 342.630 C 467.155 340.146, 468.339 339.446, 470.709 335.864 C 473.694 331.353, 476.949 329.352, 482.833 328.411 C 487.395 327.681, 491 324.859, 491 322.018 C 491 317.575, 482.062 315.495, 475.500 318.412 M 495.419 329.855 C 485.775 334.454, 448.123 357.901, 443.500 362.186 C 442.280 363.317, 456.891 358.221, 470.500 352.770 C 476 350.567, 484.959 347.479, 490.408 345.908 C 495.858 344.337, 501.334 342.095, 502.578 340.927 C 505.534 338.150, 507.234 333.920, 506.827 330.357 C 506.372 326.379, 503.017 326.232, 495.419 329.855 M 329.500 354.452 C 325.650 355.132, 318.713 356.489, 314.085 357.468 C 308.726 358.602, 303.552 359.056, 299.835 358.719 L 293.999 358.190 296.055 361.077 C 299.457 365.855, 301.903 367, 308.711 367 C 313.110 367, 317.883 366.032, 324.738 363.750 L 334.500 360.500 355.500 360.765 C 367.050 360.911, 377.625 360.737, 379 360.380 C 380.684 359.942, 375.299 358.638, 362.500 356.386 C 341.763 352.737, 339.844 352.625, 329.500 354.452 M 385.068 368.059 C 374.600 369.359, 367.199 373.181, 356.500 382.809 C 344.704 393.425, 338.867 396.391, 328.871 396.850 C 322.740 397.132, 320.300 396.784, 316.443 395.078 C 312.988 393.550, 311.345 393.260, 310.572 394.045 C 309.059 395.583, 312.243 397.722, 318.942 399.671 C 329.219 402.660, 341.769 399.854, 354.146 391.799 C 364.977 384.750, 368.543 383.780, 386.500 382.996 C 399.975 382.408, 403.160 381.960, 406.684 380.162 C 413.635 376.614, 416.102 371.195, 411.811 368.899 C 408.926 367.355, 394.403 366.899, 385.068 368.059 M 327 370 C 327 370.550, 327.423 371, 327.941 371 C 328.459 371, 329.160 370.550, 329.500 370 C 329.840 369.450, 329.416 369, 328.559 369 C 327.702 369, 327 369.450, 327 370 M 496.500 371.020 C 492.231 373.875, 479.935 377.550, 470 378.940 C 452.954 381.326, 445.748 383.982, 436.219 391.393 C 429.381 396.711, 431.679 397.374, 441.364 392.878 C 448.062 389.768, 449.390 389.523, 463 388.895 C 481.810 388.028, 487.594 386.455, 492.592 380.847 C 494.331 378.897, 500.264 368.985, 499.680 369.007 C 499.581 369.010, 498.150 369.916, 496.500 371.020 M 310.500 372.035 C 308.300 372.502, 304.491 372.911, 302.036 372.942 C 297.851 372.996, 297.677 373.105, 299.255 374.684 C 302.816 378.244, 321.500 376.793, 321.500 372.956 C 321.500 371.209, 316.395 370.782, 310.500 372.035 M 486.450 389.879 C 484.095 392.058, 476.698 393.268, 464.391 393.487 C 453.955 393.673, 450.521 394.084, 448.535 395.385 C 443.228 398.863, 446.905 401.075, 459.154 401.773 C 466.425 402.188, 469.118 401.891, 474.862 400.045 C 480.813 398.131, 482.241 397.192, 484.959 393.408 C 487.987 389.191, 488.497 387.985, 486.450 389.879 M 372.137 391.427 C 369.187 392.163, 360.702 395.854, 353.281 399.630 C 340.624 406.070, 339.316 406.516, 332.145 406.840 C 326.306 407.104, 323.267 406.717, 319.282 405.201 L 314.063 403.216 318.282 408.236 C 323.437 414.370, 335.953 425.261, 341.837 428.733 C 346.535 431.505, 368.163 437.967, 381.934 440.713 C 388.143 441.951, 395.729 442.432, 409.500 442.460 C 432.622 442.509, 435 441.861, 447.025 432.240 L 455.432 425.513 448.662 424.286 C 444.938 423.611, 437.528 421.596, 432.196 419.809 C 423.524 416.902, 421.281 416.555, 410.956 416.529 C 401.555 416.505, 398.910 416.829, 396.706 418.273 C 395.218 419.248, 394 420.722, 394 421.548 C 394 424.107, 398.837 425.071, 411.670 425.071 C 418.464 425.071, 424.692 425.329, 425.511 425.643 C 428.562 426.813, 426.933 428.737, 422.360 429.364 C 402.668 432.063, 363.784 425.071, 360.089 418.167 C 357.322 412.996, 363.789 409.673, 380.628 407.613 C 387.298 406.797, 394.492 405.403, 396.614 404.517 C 404.537 401.207, 407.119 396.230, 402.898 392.405 C 401.117 390.791, 399.019 390.469, 389.148 390.295 C 382.067 390.171, 375.397 390.614, 372.137 391.427 M 438.459 397.067 C 437.539 398.556, 438.606 399.365, 440.520 398.631 C 441.404 398.292, 441.847 397.561, 441.504 397.007 C 440.694 395.696, 439.289 395.723, 438.459 397.067 M 210 493.500 L 210 509 219.250 508.978 C 235.136 508.940, 241.473 504.152, 240.741 492.739 C 240.066 482.234, 233.233 478, 216.951 478 L 210 478 210 493.500 M 248.667 478.667 C 248.300 479.033, 248 486.008, 248 494.167 L 248 509 260.500 509 L 273 509 273 505.500 L 273 502 265 502 C 257.173 502, 257 501.947, 257 499.546 C 257 497.212, 257.330 497.077, 263.750 496.796 L 270.500 496.500 270.500 493.500 L 270.500 490.500 263.750 490.204 C 257.330 489.923, 257 489.788, 257 487.454 C 257 485.067, 257.204 485, 264.500 485 L 272 485 272 481.500 L 272 478 260.667 478 C 254.433 478, 249.033 478.300, 248.667 478.667 M 292.694 478.639 C 292.312 479.021, 292 480.584, 292 482.112 C 292 484.717, 292.296 484.909, 296.750 485.195 L 301.500 485.500 301.782 497.250 L 302.063 509 306 509 L 309.937 509 310.218 497.250 L 310.500 485.500 315.309 485.193 C 320.061 484.889, 320.115 484.848, 319.809 481.693 L 319.500 478.500 306.444 478.222 C 299.264 478.070, 293.076 478.257, 292.694 478.639 M 326 493.468 L 326 509 338 509 L 350 509 350 505.500 L 350 502 342 502 C 334.133 502, 334 501.958, 334 499.500 C 334 497.071, 334.200 497, 341 497 L 348 497 348 493.500 L 348 490 341 490 C 334.200 490, 334 489.929, 334 487.500 C 334 485.040, 334.129 485, 342.063 485 L 350.127 485 349.813 481.750 L 349.500 478.500 337.750 478.218 L 326 477.937 326 493.468 M 357.667 478.667 C 357.300 479.033, 357 486.008, 357 494.167 L 357 509 361.500 509 L 366 509 366 505 C 366 501.460, 366.272 501, 368.367 501 C 370.021 501, 371.532 502.205, 373.381 505 C 375.832 508.703, 376.369 509, 380.629 509 L 385.230 509 383.615 506.500 C 378.555 498.667, 378.804 499.289, 380.466 498.652 C 381.311 498.327, 382.737 496.523, 383.634 494.642 C 386.879 487.837, 383.137 480.748, 375.347 478.940 C 370.829 477.892, 358.630 477.703, 357.667 478.667 M 392 488.541 C 392 504.432, 395.116 509, 405.954 509 C 417.140 509, 420.344 504.575, 420.437 489 L 420.500 478.500 416.250 478.193 L 412 477.885 412 487.720 C 412 498.523, 410.693 502, 406.634 502 C 401.853 502, 401.066 500.255, 400.773 489 L 400.500 478.500 396.250 478.193 L 392 477.885 392 488.541 M 436.271 479.964 C 425.551 484.830, 424.946 500.728, 435.241 507.005 C 439.201 509.420, 448.402 509.695, 453.532 507.551 C 456.993 506.105, 457 506.090, 457 499.491 L 457 492.879 453.250 493.190 C 449.610 493.491, 449.491 493.625, 449.193 497.750 C 448.907 501.701, 448.681 502, 445.990 502 C 437.411 502, 433.305 493.982, 438.722 487.807 C 441.055 485.147, 445.442 484.641, 449.496 486.565 C 453.001 488.228, 453.142 488.215, 455.512 485.989 C 458.431 483.246, 458.011 482.363, 452.627 479.918 C 447.346 477.520, 441.619 477.536, 436.271 479.964 M 465.714 478.619 C 465.321 479.012, 465 486.008, 465 494.167 L 465 509 469.500 509 L 474 509 474 505.200 C 474 501.724, 475.359 499, 477.092 499 C 477.473 499, 479.501 501.250, 481.598 504 C 485.239 508.775, 485.627 509, 490.205 509 C 492.842 509, 495 508.752, 495 508.449 C 495 508.146, 492.244 504.343, 488.876 499.998 L 482.753 492.098 488.372 485.799 C 491.462 482.335, 493.993 479.163, 493.996 478.750 C 493.998 478.337, 492.298 478, 490.219 478 C 486.919 478, 485.677 478.770, 480.469 484.042 L 474.500 490.085 474 484.292 L 473.500 478.500 469.964 478.202 C 468.020 478.039, 466.107 478.226, 465.714 478.619 M 500.993 478.218 C 500.989 478.373, 500.902 485.250, 500.799 493.500 L 500.612 508.500 512.806 508.781 L 525 509.062 525 505.531 L 525 502 517 502 C 509.133 502, 509 501.958, 509 499.500 C 509 497.071, 509.200 497, 516 497 L 523 497 523 493.500 L 523 490 516 490 C 509.232 490, 509 489.919, 509 487.542 C 509 485.169, 509.268 485.074, 516.703 484.792 L 524.406 484.500 524.404 481.500 L 524.403 478.500 512.702 478.218 C 506.266 478.063, 500.997 478.063, 500.993 478.218 M 532.667 478.667 C 532.300 479.033, 532 486.008, 532 494.167 L 532 509 544.563 509 L 557.127 509 556.813 505.750 L 556.500 502.500 548.750 502.208 C 541.265 501.926, 541 501.832, 541 499.458 C 541 497.099, 541.263 497, 547.500 497 L 554 497 554 493.500 L 554 490 547.500 490 C 541.233 490, 541 489.910, 541 487.500 C 541 485.056, 541.167 485, 548.500 485 L 556 485 556 481.500 L 556 478 544.667 478 C 538.433 478, 533.033 478.300, 532.667 478.667 M 564 493.500 L 564 509 568.500 509 L 573 509 573 505 C 573 501.511, 573.289 501, 575.264 501 C 576.826 501, 578.294 502.239, 580 505 C 582.330 508.770, 582.749 509, 587.284 509 L 592.096 509 588.964 504.448 L 585.832 499.895 588.416 497.311 C 590.493 495.234, 591 493.764, 591 489.818 C 591 481.369, 585.395 478.016, 571.250 478.006 L 564 478 564 493.500 M 218.750 485.571 C 218.338 485.990, 218 489.858, 218 494.167 L 218 502 222.365 502 C 228.723 502, 232 499.137, 232 493.582 C 232 490.609, 231.404 488.771, 230.041 487.537 C 227.970 485.663, 220.021 484.279, 218.750 485.571 M 366 489.500 L 366 494 369.878 494 C 374.397 494, 376.481 492.053, 375.623 488.632 C 375.024 486.246, 372.567 485.040, 368.250 485.014 C 366.248 485.002, 366 485.496, 366 489.500 M 573 489.500 L 573 494 577.021 494 C 580.389 494, 581.237 493.574, 582.235 491.383 C 583.288 489.072, 583.155 488.544, 581.103 486.883 C 579.825 485.847, 577.478 485, 575.889 485 C 573.132 485, 573 485.205, 573 489.500" stroke="none" fill="black" fill-rule="evenodd"/>
	<path fill-opacity="0.314" d="M 335.341 292.034 C 312.526 296.117, 294.485 314.887, 293.229 335.845 C 292.725 344.251, 292.684 344.249, 298.477 336.162 C 306.035 325.609, 320.389 316.053, 334.087 312.455 C 337.773 311.486, 344.338 310.761, 349.525 310.749 C 362.923 310.717, 372.838 313.999, 383.591 322.025 L 388.682 325.825 393.496 322.693 L 398.311 319.561 389.438 311.360 C 379.157 301.858, 372.880 297.801, 363.304 294.471 C 355.444 291.738, 343.039 290.657, 335.341 292.034 M 389.500 368.106 C 374.104 369.189, 369.343 371.379, 355.834 383.591 C 344.629 393.720, 337.224 397.335, 327.690 397.329 C 322.594 397.326, 319.139 396.721, 315.827 395.253 C 311.360 393.272, 310 393.265, 310 395.223 C 310 396.715, 318.173 399.790, 324 400.491 C 331.932 401.446, 342.327 398.828, 350.172 393.901 C 365.091 384.530, 367.571 383.758, 385.905 382.786 C 399.351 382.073, 403.312 381.516, 406.777 379.850 C 411.128 377.760, 414.599 373.002, 413.625 370.465 C 412.722 368.111, 402.975 367.158, 389.500 368.106 M 372.793 391.550 C 369.654 392.312, 361.249 395.879, 354.116 399.479 C 346.983 403.079, 338.897 406.451, 336.149 406.972 C 330.835 407.980, 321.697 406.978, 317.961 404.979 C 313.314 402.492, 315.436 405.193, 326.439 415.771 C 339.978 428.787, 342.894 430.377, 363.470 435.964 C 386.972 442.346, 409.099 444.464, 426.294 441.978 C 434.568 440.782, 438.538 438.831, 447.930 431.349 L 455.172 425.579 448.164 424.398 C 444.310 423.748, 436.734 421.706, 431.328 419.859 C 422.625 416.884, 420.298 416.500, 411 416.500 C 399.968 416.500, 394.832 417.920, 394.211 421.142 C 393.692 423.837, 399.363 425, 413.027 425 C 422.845 425, 426.026 425.327, 426.942 426.430 C 427.895 427.579, 427.684 428.099, 425.866 429.072 C 422.887 430.666, 394.414 429.629, 384 427.546 C 366.338 424.014, 357.988 419.765, 359.478 415.068 C 360.628 411.445, 367.224 408.997, 379.817 407.521 C 393.471 405.920, 400.474 403.597, 403.375 399.704 C 405.290 397.135, 405.338 396.692, 403.964 394.246 C 403.142 392.781, 401.352 391.272, 399.985 390.891 C 395.691 389.696, 378.749 390.106, 372.793 391.550 M 438.880 479.135 C 436.888 479.686, 433.767 481.676, 431.944 483.558 C 429.133 486.458, 428.568 487.853, 428.226 492.739 C 427.890 497.549, 428.209 499.061, 430.161 501.898 C 434.786 508.619, 444.230 510.892, 452.980 507.391 L 457 505.783 457 499.391 L 457 493 453.557 493 C 450.222 493, 450.105 493.133, 449.807 497.250 C 449.502 501.477, 449.477 501.502, 445.261 501.807 C 441.827 502.056, 440.547 501.638, 438.511 499.602 C 431.422 492.513, 441.584 480.818, 449.821 486.587 C 451.895 488.040, 452.299 488.034, 454.605 486.523 C 455.991 485.615, 456.955 484.366, 456.749 483.747 C 455.428 479.785, 445.646 477.260, 438.880 479.135 M 210 494.113 L 210 509.227 220.254 508.847 C 228.717 508.534, 231.143 508.075, 234.147 506.218 C 243.381 500.511, 243.169 486.732, 233.759 480.995 C 231.068 479.354, 228.713 479.007, 220.250 479.004 L 210 479 210 494.113 M 249 494 L 249 509 261 509 L 273 509 273 506 L 273 503 265 503 L 257 503 257 500 L 257 497 263.500 497 L 270 497 270 493.500 L 270 490 263.500 490 C 257.233 490, 257 489.910, 257 487.500 C 257 485.056, 257.167 485, 264.500 485 L 272 485 272 482 L 272 479 260.500 479 L 249 479 249 494 M 293 482 C 293 484.889, 293.167 485, 297.500 485 L 302 485 302 497 L 302 509 306 509 L 310 509 310 497 L 310 485 315 485 C 319.889 485, 320 484.933, 320 482 L 320 479 306.500 479 L 293 479 293 482 M 326 494 L 326 509 338 509 L 350 509 350 506.042 L 350 503.084 342.250 502.792 C 334.656 502.506, 334.494 502.446, 334.188 499.797 C 333.879 497.118, 333.937 497.092, 340.688 496.797 L 347.500 496.500 347.500 493.500 L 347.500 490.500 340.750 490.204 C 334.330 489.923, 334 489.788, 334 487.454 C 334 485.067, 334.204 485, 341.500 485 L 349 485 349 482 L 349 479 337.500 479 L 326 479 326 494 M 357.800 493.999 L 358.100 509 362.050 509 C 365.992 509, 366 508.992, 366 505 C 366 501.406, 366.252 501, 368.486 501 C 370.278 501, 371.710 502.116, 373.619 505 C 376.044 508.665, 376.636 509, 380.692 509 C 385.508 509, 385.509 508.988, 381.191 503.235 L 378.740 499.970 381.257 497.638 C 384.834 494.322, 385.583 489.853, 383.330 485.254 C 380.792 480.069, 378.078 479.032, 367 479.013 L 357.500 478.997 357.800 493.999 M 392 488.532 C 392 503.260, 394.894 507.995, 404.378 508.781 C 410.884 509.321, 416.416 507.030, 418.544 502.915 C 419.549 500.972, 420 496.829, 420 489.550 L 420 479 416 479 L 412 479 412 488.929 C 412 500.236, 410.969 502.326, 405.647 501.804 C 401.283 501.376, 400.032 498.256, 400.015 487.750 L 400 479 396 479 L 392 479 392 488.532 M 465 494 L 465 509 469.500 509 L 474 509 474 504.622 C 474 501.959, 474.585 499.759, 475.494 499.005 C 477.101 497.671, 478.335 498.746, 483.231 505.743 C 485.247 508.625, 486.030 508.987, 490.250 508.993 C 492.863 508.997, 495 508.834, 495 508.632 C 495 508.430, 492.300 504.770, 489 500.500 C 485.700 496.230, 483.002 492.458, 483.004 492.118 C 483.007 491.778, 485.518 488.688, 488.584 485.250 L 494.160 479 489.688 479 C 485.501 479, 484.858 479.387, 479.608 485.057 L 474 491.114 474 485.057 L 474 479 469.500 479 L 465 479 465 494 M 501 494 L 501 509 513 509 L 525 509 525 506 L 525 503 517 503 L 509 503 509 500.046 C 509 497.097, 509.012 497.091, 515.703 496.796 L 522.407 496.500 522.407 493.500 L 522.407 490.500 515.703 490.204 C 509.333 489.923, 509 489.787, 509 487.454 C 509 485.067, 509.204 485, 516.500 485 L 524 485 524 482 L 524 479 512.500 479 L 501 479 501 494 M 532 494 L 532 509 544.500 509 L 557 509 557 506 L 557 503 549 503 L 541 503 541 500 L 541 497 547.500 497 L 554 497 554 493.500 L 554 490 547.500 490 C 541.233 490, 541 489.910, 541 487.500 C 541 485.056, 541.167 485, 548.500 485 L 556 485 556 482 L 556 479 544 479 L 532 479 532 494 M 564 494 L 564 509 567.940 509 C 571.770 509, 571.888 508.896, 572.190 505.250 C 572.452 502.085, 572.890 501.459, 575 501.240 C 576.929 501.039, 578.143 501.896, 580.315 504.990 C 582.788 508.514, 583.607 509, 587.065 509 C 589.229 509, 591 508.765, 591 508.479 C 591 508.192, 589.824 506.180, 588.386 504.008 L 585.773 500.059 588.386 496.953 C 592.992 491.480, 591.496 483.277, 585.316 480.117 C 584.114 479.503, 578.827 479, 573.566 479 L 564 479 564 494 M 218 493.500 L 218 502 222.566 502 C 228.463 502, 230.584 500.792, 231.950 496.652 C 234.108 490.113, 229.863 485, 222.277 485 L 218 485 218 493.500 M 366 490 C 366 494.631, 366.180 495, 368.435 495 C 373.342 495, 376 493.264, 376 490.060 C 376 486.633, 373.762 485, 369.066 485 C 366.054 485, 366 485.087, 366 490 M 572.398 486.405 C 572.102 487.177, 572.003 489.315, 572.180 491.155 C 572.451 493.986, 572.933 494.550, 575.315 494.823 C 581.128 495.489, 585.051 490.194, 581.429 486.571 C 579.458 484.601, 573.135 484.484, 572.398 486.405" stroke="none" fill="black" fill-rule="evenodd"/>
	<path fill-opacity="0.280" d="M 330.112 293.581 C 318.401 296.730, 306.428 305.527, 299.944 315.746 C 296.059 321.870, 293 331.824, 293 338.342 L 293 343.473 296.414 338.404 C 307.558 321.856, 330.101 309.959, 350.208 310.015 C 361.387 310.046, 374.756 314.787, 383.782 321.922 L 388.553 325.693 393.105 322.597 L 397.657 319.500 388.344 310.882 C 378.279 301.568, 369.062 296.033, 359.448 293.528 C 352.130 291.622, 337.295 291.649, 330.112 293.581 M 381.120 369.127 C 373.469 370.398, 365.835 374.857, 355.651 384.002 C 350.783 388.373, 344.361 393.103, 341.379 394.514 C 334.142 397.937, 324.981 398.759, 319 396.520 C 316.525 395.594, 313.488 394.596, 312.250 394.301 C 308.447 393.398, 309.758 395.587, 314.224 397.598 C 317.475 399.062, 320.758 399.498, 328.474 399.493 C 339.669 399.486, 343.262 398.308, 354.611 390.923 C 364.766 384.315, 370.364 382.832, 388 382.077 C 403.967 381.394, 407.413 380.543, 411.162 376.352 C 413.855 373.342, 413.796 370.764, 411 369.320 C 408.115 367.831, 389.644 367.712, 381.120 369.127 M 379 390.594 C 370.338 392.174, 365.995 393.801, 353.166 400.271 L 338.831 407.500 330.666 407.439 C 325.384 407.400, 321.087 406.784, 318.500 405.694 C 314.883 404.172, 315.490 404.975, 324.839 414.083 C 337.588 426.505, 341.845 429.249, 354.364 433.112 C 379.586 440.896, 401.768 443.883, 421.003 442.087 C 434.230 440.852, 437.470 439.528, 447.722 431.164 L 454.944 425.273 449.165 424.749 C 445.986 424.460, 438.236 422.511, 431.942 420.418 C 421.875 417.068, 419.358 416.613, 411 416.627 C 404.376 416.639, 400.338 417.148, 397.662 418.308 C 389.230 421.963, 396.459 424.865, 414.191 424.944 C 427.136 425.001, 429.360 425.656, 426.858 428.671 C 425.716 430.047, 423.184 430.183, 407.522 429.708 C 380.733 428.896, 360.996 423.817, 359.365 417.316 C 358.833 415.200, 359.242 414.189, 361.365 412.363 C 364.670 409.520, 368.828 408.404, 381.084 407.071 C 390.766 406.018, 397.583 404.158, 401.734 401.439 C 404.738 399.470, 404.916 393.561, 402.018 392.010 C 399.890 390.871, 383.131 389.840, 379 390.594 M 210 494.134 L 210 509.267 219.888 508.791 C 230.705 508.270, 234.598 506.773, 238.395 501.674 C 241.319 497.748, 241.228 489.533, 238.214 485.300 C 234.999 480.786, 229.546 479, 218.980 479 L 210 479 210 494.134 M 249 494 L 249 509 260.500 509 L 272 509 272 506 L 272 503 264.667 503 C 260.633 503, 257.111 502.778, 256.839 502.506 C 256.567 502.234, 256.548 500.623, 256.798 498.926 L 257.250 495.840 263.627 496.170 C 269.998 496.500, 270.004 496.497, 270.002 493.750 C 270 491.032, 269.924 491, 263.500 491 L 257 491 257 488 L 257 485 264.500 485 L 272 485 272 482 L 272 479 260.500 479 L 249 479 249 494 M 293 482 C 293 484.889, 293.167 485, 297.500 485 L 302 485 302 497 L 302 509 306 509 L 310 509 310 497 L 310 485 314.500 485 C 318.833 485, 319 484.889, 319 482 L 319 479 306 479 L 293 479 293 482 M 326 494 L 326 509 338 509 L 350 509 350 506 L 350 503 342 503 L 334 503 334 499.500 L 334 496 340.500 496 C 346.767 496, 347 495.910, 347 493.500 C 347 491.090, 346.767 491, 340.500 491 L 334 491 334 488 L 334 485 341.500 485 L 349 485 349 482 L 349 479 337.500 479 L 326 479 326 494 M 358 494.060 L 358 509.121 361.750 508.810 C 365.296 508.517, 365.517 508.296, 365.810 504.750 C 366.078 501.522, 366.462 501, 368.570 501 C 370.295 501, 371.829 502.170, 373.760 504.962 C 376.224 508.526, 376.934 508.928, 380.812 508.962 L 385.124 509 381.930 504.552 L 378.735 500.103 381.368 496.975 C 383.248 494.740, 384 492.707, 384 489.858 C 384 481.563, 379.877 479, 366.532 479 L 358 479 358 494.060 M 392.056 488.250 C 392.152 503.924, 395.303 508.500, 406 508.500 C 410.379 508.500, 412.565 507.972, 414.677 506.404 C 419.140 503.089, 419.969 500.411, 419.985 489.250 L 420 479 416 479 L 412 479 412 489.443 C 412 499.101, 411.833 500.004, 409.777 501.443 C 406.728 503.579, 405.315 503.406, 402.455 500.545 C 400.191 498.282, 400 497.347, 400 488.545 L 400 479 396 479 L 392 479 392.056 488.250 M 436.071 480.752 C 426.014 485.880, 425.326 500.317, 434.856 506.228 C 439.202 508.924, 448.742 509.297, 453.500 506.957 C 456.235 505.613, 456.526 504.986, 456.796 499.856 L 457.093 494.230 453.546 493.816 L 450 493.402 450 497.701 C 450 502.289, 449.483 502.615, 443 502.120 C 439.402 501.845, 436 497.607, 436 493.399 C 436 486.474, 443.100 482.932, 449.916 486.457 C 452.547 487.817, 452.881 487.755, 454.986 485.515 L 457.239 483.116 453.870 481.062 C 449.570 478.441, 440.900 478.289, 436.071 480.752 M 466 494 L 466 509 469.500 509 C 472.893 509, 473 508.883, 473 505.155 C 473 502.542, 473.660 500.712, 475.060 499.445 C 477.090 497.609, 477.162 497.632, 479.810 501.021 C 486.072 509.032, 486.250 509.159, 490.743 508.819 L 494.970 508.500 488.491 500.280 L 482.012 492.060 488.121 485.530 L 494.229 479 489.714 479 C 485.439 479, 484.921 479.320, 480 485 C 477.141 488.300, 474.397 491, 473.901 491 C 473.405 491, 473 488.300, 473 485 L 473 479 469.500 479 L 466 479 466 494 M 501 494.032 L 501 509.063 512.750 508.782 L 524.500 508.500 524.816 505.750 L 525.133 503 517.066 503 L 509 503 509 499.500 L 509 496 515.500 496 C 521.767 496, 522 495.910, 522 493.500 C 522 491.090, 521.767 491, 515.500 491 L 509 491 509 488 L 509 485 516.500 485 L 524 485 524 482 L 524 479 512.500 479 L 501 479 501 494.032 M 533 494 L 533 509 544.500 509 L 556 509 556 506.042 L 556 503.084 548.250 502.792 L 540.500 502.500 540.500 499.500 L 540.500 496.500 547.250 496.204 C 553.633 495.925, 554 495.778, 554 493.500 C 554 491.222, 553.633 491.075, 547.250 490.796 C 540.714 490.509, 540.490 490.413, 540.184 487.750 L 539.867 485 547.934 485 L 556 485 556 482 L 556 479 544.500 479 L 533 479 533 494 M 564.223 493.658 L 564.500 508.500 568.250 508.810 L 572 509.121 572 505.060 C 572 501.258, 572.182 501, 574.864 501 C 577.077 501, 578.358 501.910, 580.500 505 C 582.924 508.498, 583.757 509, 587.136 509 C 589.261 509, 591 508.771, 591 508.491 C 591 508.212, 589.670 506.147, 588.046 503.904 L 585.091 499.826 587.644 497.630 C 589.460 496.068, 590.346 494.114, 590.712 490.860 C 591.169 486.810, 590.881 485.898, 588.198 482.893 L 585.168 479.500 574.557 479.158 L 563.945 478.816 564.223 493.658 M 218.211 493.750 L 218.500 502.500 223.494 502.317 C 227.513 502.170, 228.928 501.623, 230.744 499.511 C 233.227 496.624, 233.626 493.043, 231.837 489.684 C 229.962 486.165, 227.806 485.066, 222.711 485.032 L 217.922 485 218.211 493.750 M 366 490 L 366 495 369.500 495 C 371.667 495, 373.762 494.238, 375 493 C 377.408 490.592, 377.447 490.083, 375.443 487.223 C 374.282 485.565, 372.885 485, 369.943 485 L 366 485 366 490 M 572 490 L 572 495 575.566 495 C 580.623 495, 583 493.454, 583 490.165 C 583 486.313, 581.296 485, 576.300 485 L 572 485 572 490" stroke="none" fill="black" fill-rule="evenodd"/>
</svg>